<?xml version="1.0" encoding="utf-8"?>
<!-- Generator: Adobe Illustrator 22.0.0, SVG Export Plug-In . SVG Version: 6.00 Build 0)  -->
<svg version="1.1" id="Layer_1" xmlns="http://www.w3.org/2000/svg" xmlns:xlink="http://www.w3.org/1999/xlink" x="0px" y="0px"
	 viewBox="0 0 747 174.2" style="enable-background:new 0 0 747 174.2;" xml:space="preserve">
<style type="text/css">
	.st0{fill:#FFFFFF;}
</style>
<g>
	<g>
		<path class="st0" d="M257.8,50.7c0,13.7-3.8,25.2-22.5,25.2c-12.6,0-19.4-5.9-19.4-19v-22c0-5.8-7-3.7-7-6.2
			c0-0.9,0.9-1.1,1.4-1.1c0.9,0,5.9,0.3,9.3,0.3c3.5,0,8.3-0.3,9.5-0.3c0.6,0,0.7,0.5,0.7,1c0,2.3-5.7-1.3-5.7,9.8v14.7
			c0,10.3,2.7,18.9,14.8,18.9c13.4,0,15.2-10.7,15.2-22.1V36.4c0-7.8-8.3-5.7-8.3-8.1c0-1.1,1.1-0.7,2-0.7c2,0.1,3.8,0.3,5.7,0.3
			c2.2,0,4.3-0.1,7.7-0.3c0.8,0,1.2,0.1,1.2,0.9c0,1.8-4.7-0.6-4.7,7V50.7z"/>
		<path class="st0" d="M272.7,40.5c0-13-7.6-8.6-7.6-11.8c0-0.6,0.3-1.1,1.2-1.1c1.3,0,2.5,0.3,3.8,0.3c1.7,0,3.5-0.3,7.1-0.3
			c2.2,0,1.3,0.5,2.6,1.8l27.2,29.8c0.9,0.9,1.7,1.8,2.1,1.8c0.4,0,0.5-0.8,0.5-2.5V35.8c0-6.1-8.2-4.9-8.2-7.2
			c0-0.5,0.2-1.1,1.1-1.1c1.1,0,3,0.3,7.7,0.3c4.3,0,6.6-0.3,7.2-0.3c1.3,0,1.3,0.7,1.3,0.9c0,2-5.8,0.4-5.8,7.5v37.9
			c0,1.5,0,2-0.8,2c-1,0-1.3-0.4-1.8-0.9l-32.5-35.2c-0.5-0.5-0.9-0.9-1.2-0.9c-0.4,0-0.5,0.5-0.5,1.1v23c0,13,8.6,8.4,8.6,11.6
			c0,0.9-1.7,0.9-2.6,0.9c-3.3,0-5.6-0.3-8-0.3c-2.2,0-4,0.3-5.8,0.3c-0.7,0-2.1,0.3-2.1-0.8c0-2.7,6.5-1.5,6.5-8.4V40.5z"/>
		<path class="st0" d="M338.3,67c0,8.3,7.6,5.2,7.6,7.4c0,0.7-0.6,1-2.2,1c-2.5,0-5-0.3-10.3-0.3c-2.9,0-5.8,0.3-7.6,0.3
			c-0.6,0-0.7-0.5-0.7-0.8c0-2.4,4.9-0.6,4.9-7V35.1c0-6.1-7.6-4.3-7.6-6.6c0-1.1,1.7-0.9,2.3-0.9c2.6,0,5.3,0.3,7.6,0.3
			c2.4,0,4.9-0.3,8.7-0.3c2,0,2.4,0.1,2.4,0.9c0,2.3-5.1-0.1-5.1,6.3V67z"/>
		<path class="st0" d="M373.1,74.3c-0.7,1.8-1.1,2.2-1.8,2.2c-0.7,0-1.3-0.7-2.6-3.5l-16.8-39.3c-1.2-2.6-2.1-3.4-4.9-4.1
			c-0.2-0.1-1.1-0.5-1.1-0.9c0-1.6,2.1-1.1,3.1-1.1c2.2,0,4.5,0.3,6.8,0.3c4.3,0,6.3-0.3,7.4-0.3c2.2,0,2.5-0.1,2.5,1.1
			c0,1.8-4.1,0.8-4.1,3.7c0,2,0.9,5.2,2.6,9.3l8.8,21.8c0.2,0.5,0.5,1.4,0.9,1.4c0.4,0,0.7-0.9,0.9-1.4l9.3-20.6
			c2-4.5,2.2-6.9,2.2-8c0-6.3-6.8-3.9-6.8-6.2c0-1.3,2-1.1,2.8-1.1c2,0,3.9,0.3,5.8,0.3c1.9,0,3.8-0.3,5.7-0.3c1.4,0,2.4-0.2,2.4,1
			c0,1.5-2.8,1.2-4.6,5.2L373.1,74.3z"/>
		<path class="st0" d="M413,44.9c0,2.9,0,3.4,2.9,3.4h4.3c5.8,0,6-6.2,7.4-6.2c0.5,0,1.2-0.1,1.3,1.7l0.5,12
			c0.1,0.9,0.5,3.3-1.1,3.3c-2.2,0-0.3-7.2-7.3-7.2h-5c-3.1,0-2.8,0.8-2.8,4.7v8.7c0,4.2-0.3,6.6,4.6,6.6c16.8,0,15.8-8.9,18.4-8.9
			c0.3,0,0.7,0.2,0.7,1.5c0,5.3-4,10.8-9.5,10.8c-10.3,0-14.3-0.3-17.7-0.3c-2.1,0-4.9,0.3-8.7,0.3c-0.9,0-1.3-0.3-1.3-0.7
			c0-3.1,5.1,0.5,5.1-7.7V35.3c0-6.1-7.6-3.9-7.6-6.6c0-0.6,0.5-1.1,1.5-1.1c2.8,0,7.6,0.3,18,0.3c4.8,0,9.5-0.3,15.4-0.3
			c0.9,0,1.4,0.7,1.4,1.3l0.3,6.7c0.1,0.9,0.4,3.1-1.1,3.1c-3.2,0,2.1-7.9-10.9-7.9c-8.2,0-8.5,0.1-8.5,4.7V44.9z"/>
		<path class="st0" d="M446.1,36c0-7.6-7.4-5.1-7.4-7.5c0-0.7,0.7-1,1.5-1c3.1,0,3.6,0.3,7.9,0.3c4.5,0,9.1-0.3,13.7-0.3
			c14.8,0,16.1,9.5,16.1,12.6c0,4.3-2,6.8-3.9,8.4c-2,1.5-3.9,2.2-3.9,2.8c0,0.4,5.8,10.2,10.6,18.7c0.6,1.1,1.9,1.1,2.4,1.1
			c0.7,0,1.4-0.4,2-0.4c0.6,0,1,0.4,1,0.9c0,2.1-4.5,3.6-7.2,3.6c-5.3,0-7.5-4.3-9.6-8.2l-5.7-10.7c-1.5-3-2.8-3.6-6.2-3.6
			c-3.6,0-3.2,0.5-3.2,2.8v11.7c0,7.2,6.7,4.5,6.7,6.9c0,0.6-0.5,1-2.1,1c-1.1,0-3-0.3-5.8-0.3c-3.7,0-7,0.3-10.4,0.3
			c-0.7,0-2.2,0.2-2.2-1.2c0-2.2,5.5,0.1,5.5-8.4V36z M454.5,48.1c0,1.7,2.5,1.7,4.5,1.7c10.3,0,10.7-3.8,10.7-7.8
			c0-6.6-3.8-11.6-10.6-11.6c-2.5,0-4.6,0-4.6,4.1V48.1z"/>
		<path class="st0" d="M488.9,61.5c-0.2-0.9-0.9-2.9,0.8-2.9c1.1,0,1.2,0.6,1.5,1.5c2.2,6.5,6.4,12.6,13.9,12.6
			c5.3,0,9.3-3.2,9.3-8.6c0-5.8-4.3-6.6-15.1-11.4c-5.8-2.6-9.8-5.2-9.8-12.3c0-7.8,5.4-13.4,13.3-13.4c5.5,0,8.4,2.6,10.4,2.6
			c0.9,0,2.6-1.1,3.4-1.1c1,0,0.8,1,1,2.6l0.7,9.1c0.1,1.5-0.1,2.3-1.5,2.3c-1.6,0-2.6-12.6-14.2-12.6c-4.5,0-7.5,2.6-7.5,7.1
			s3.7,5.4,12.8,9.4c7.2,3.2,11.7,6.1,11.7,14.7c0,8.9-6.2,14.9-15.1,14.9c-4.1,0-7.6-1.6-11.5-2.5c-1.7-0.4-1.6-0.9-2-2.6
			L488.9,61.5z"/>
		<path class="st0" d="M540.2,67c0,8.3,7.6,5.2,7.6,7.4c0,0.7-0.6,1-2.2,1c-2.5,0-5-0.3-10.3-0.3c-2.9,0-5.8,0.3-7.6,0.3
			c-0.6,0-0.7-0.5-0.7-0.8c0-2.4,4.9-0.6,4.9-7V35.1c0-6.1-7.6-4.3-7.6-6.6c0-1.1,1.7-0.9,2.3-0.9c2.6,0,5.3,0.3,7.6,0.3
			c2.4,0,4.9-0.3,8.7-0.3c2,0,2.4,0.1,2.4,0.9c0,2.3-5.1-0.1-5.1,6.3V67z"/>
		<path class="st0" d="M568.7,35.1c0-3.2-0.7-3.6-3.4-3.6h-5.7c-7.6,0-5.6,8.9-8.7,8.9c-1.4,0-1-1.5-0.9-2.4l1.1-8.9
			c0.1-0.7,0.1-1.6,1.1-1.6c6.3,0,10.8,0.3,20.7,0.3c9.9,0,14.4-0.3,20.7-0.3c1,0,1,0.9,1.1,1.6l0.7,6.2c0.1,0.8,0.9,3.4-0.9,3.4
			c-2.7,0-0.5-7.5-8.3-7.2h-5.8c-2.8,0-3.4,0.3-3.4,3.6v30.5c0,8.3,8.6,6.4,8.6,8.2c0,1.6-1.3,1.4-3.3,1.4c-2.7,0-4.9-0.3-9.5-0.3
			c-4.5,0-6.7,0.3-9.5,0.3c-1.2,0-2.4,0.1-2.4-1.4c0-2.6,7.6,0.6,7.6-7.4V35.1z"/>
		<path class="st0" d="M604.7,33.7c-2.6-4.9-6.8-3.2-6.8-5.3c0-0.8,0.8-0.8,2.4-0.8c1.2,0,2.8,0.3,6.2,0.3c2.8,0,5.7,0,9.9-0.3
			c0.9-0.1,1.1,0.5,1.1,0.9c0,1.5-3.7,1-3.7,3.3c0,0.6,0.1,1.4,0.9,3.1l6.1,12.6c1.1,2.2,1.5,3.1,2.1,3.1c0.4,0,0.9-0.5,1.7-2
			l6.1-11.2c1.3-2.3,1.2-3.2,1.2-3.7c0-4.5-6.6-3-6.6-5.1c0-0.7,0.5-1,1.3-1c0.9,0,2.3,0.3,5.8,0.3c5.1,0,5.9-0.3,7.8-0.3
			c0.9,0,1.2,0.3,1.2,0.7c0,1.8-3.1,0.5-7,7.9l-8.9,16.8c-0.7,1.3-0.9,1.8-0.9,4.3v10.1c0,8.5,8.3,3.8,8.3,7.3c0,0.7-1,0.8-2.2,0.8
			c-0.5,0-1.6-0.3-10.1-0.3c-6.1,0-8.1,0.3-9.9,0.3c-1.1,0-1.8-0.1-1.8-0.7c0-3,7.4,0.7,7.4-7.9v-8.8c0-2.2-0.3-2.8-1.1-4.3
			L604.7,33.7z"/>
		<path class="st0" d="M685.9,26.9c13.2-0.1,23.2,8.6,23.2,22.9c0,9.5-4.1,26-25.7,26c-13.6,0-22.7-9.1-22.7-22.9
			C660.7,38.2,669.7,27,685.9,26.9 M685.4,72.9c11.6-0.2,15.4-9.3,15.4-20.5c0-14.9-8.2-22.8-16.9-22.6
			c-11.4,0.2-14.8,9.5-14.8,19.3C669.1,59,673.3,73.1,685.4,72.9"/>
		<path class="st0" d="M726.1,44.9c0,2.9,0,3.4,2.9,3.4h4.3c5.8,0,6-6.2,7.4-6.2c0.5,0,1.2-0.1,1.3,1.7l0.5,12
			c0.1,0.9,0.5,3.3-1.1,3.3c-2.2,0-0.3-7.2-7.3-7.2h-5c-3.1,0-2.8,0.8-2.8,4.7v10c0,7.5,7.6,5.8,7.6,7.6c0,1.3-1.4,1.1-3.1,1.1
			c-2.6,0-5.1-0.3-8-0.3c-2.1,0-4.9,0.3-8.7,0.3c-0.9,0-1.3-0.3-1.3-0.7c0-3.1,5.1,0.5,5.1-7.7V35.3c0-6.1-7.6-3.9-7.6-6.6
			c0-0.6,0.5-1.1,1.5-1.1c2.8,0,7.6,0.3,18,0.3c4.8,0,9.5-0.3,15.4-0.3c0.9,0,1.3,0.7,1.3,1.3l0.3,6.7c0.1,0.9,0.4,3.1-1.1,3.1
			c-3.2,0,2.1-7.9-11-7.9c-8.2,0-8.4,0.1-8.4,4.7V44.9z"/>
		<path class="st0" d="M217,101.1c0-11.3-8.7-6.8-8.7-10.8c0-1.3,1-1.2,1.4-1.2c0.6,0,1.2,0.3,4.9,0.3c7,0,13.9-0.3,20.8-0.3
			c20.1,0,20.2,12.1,20.2,14.1c0,5.2-3.1,9.7-8.9,11.5v0.2c10,2.5,13.1,7,13.1,14.3c0,10.8-7.5,17.9-20.9,17.9
			c-12.2,0-16.3-0.3-20.4-0.3c-2,0-4.1,0.3-5.8,0.3c-1.9,0-2.7-0.2-2.7-1.3c0-2.7,7-0.5,7-8.4V101.1z M227.1,109.9
			c0,4,0.8,4.4,5.6,4.7h4.9c6.2,0,8.6-3.1,8.6-9.2c0-7.5-6.1-12.8-13.4-12.8c-5.6,0-5.7,3.1-5.7,7.8V109.9z M227.1,133.8
			c0,7.8,2.1,10.1,10.1,10.1c8,0,12.2-5.3,12.2-13.3c0-4.9-2.4-12.3-17.3-12.3c-4.8,0-5,2-5,6.3V133.8z"/>
		<path class="st0" d="M271.8,99.4c0-9.2-8.9-6.2-8.9-9.1c0-0.8,0.8-1.2,1.8-1.2c3.8,0,4.4,0.3,9.6,0.3c5.5,0,11.1-0.3,16.5-0.3
			c18,0,19.6,11.5,19.6,15.3c0,5.2-2.4,8.3-4.8,10.2c-2.4,1.9-4.8,2.6-4.8,3.4c0,0.5,7,12.4,12.9,22.7c0.7,1.3,2.3,1.3,2.9,1.3
			c0.8,0,1.7-0.5,2.5-0.5c0.7,0,1.2,0.5,1.2,1.1c0,2.5-5.4,4.3-8.7,4.3c-6.5,0-9.1-5.2-11.6-9.9l-6.9-13c-1.9-3.6-3.4-4.3-7.5-4.3
			c-4.3,0-3.9,0.6-3.9,3.4v14.2c0,8.8,8.1,5.4,8.1,8.3c0,0.7-0.6,1.2-2.5,1.2c-1.4,0-3.6-0.3-7-0.3c-4.4,0-8.5,0.3-12.6,0.3
			c-0.9,0-2.6,0.3-2.6-1.4c0-2.6,6.6,0.1,6.6-10.2V99.4z M281.8,114.1c0,2,3,2,5.5,2c12.5,0,12.9-4.6,12.9-9.4
			c0-8-4.6-14.1-12.9-14.1c-3,0-5.6,0-5.6,4.9V114.1z"/>
		<path class="st0" d="M342,136.9c0,10.1,9.2,6.3,9.2,8.9c0,0.9-0.7,1.2-2.6,1.2c-3,0-6.1-0.3-12.5-0.3c-3.5,0-7,0.3-9.2,0.3
			c-0.7,0-0.9-0.6-0.9-1c0-2.9,5.9-0.7,5.9-8.5V98.3c0-7.5-9.3-5.2-9.3-8c0-1.4,2.1-1.1,2.8-1.1c3.2,0,6.4,0.3,9.3,0.3
			c2.9,0,5.9-0.3,10.6-0.3c2.5,0,2.9,0.2,2.9,1.1c0,2.8-6.2-0.2-6.2,7.6V136.9z"/>
		<path class="st0" d="M361.6,99.1c0-8.3-8.8-5.7-8.8-8.7c0-0.8,0.9-1.3,1.5-1.3c1.6,0,3.2,0.3,11.3,0.3c4.3,0,8.4-0.3,12.7-0.3
			c11,0,34.8,1.3,34.8,27c0,23.7-21.4,31-30.1,31c-9.6,0-14.1-0.3-17.1-0.3c-2.5,0-5,0.3-7.5,0.3c-1.4,0-3.3,0.3-3.3-1.1
			c0-3.1,6.6,0,6.6-7.4V99.1z M371.6,138c0,5.4,6.1,6,9.3,6c12.8,0,21.9-8.4,21.9-25.3c0-7.8-4-26.5-24.5-26.5
			c-6.1,0-6.6,2.1-6.6,7.7V138z"/>
		<path class="st0" d="M471.8,108.2c0,1.1-0.5,1.5-2,1.5c-1.8,0-1.8-17.9-23.3-17.9c-7.6,0-18.4,5-18.4,25.7
			c0,11.2,5.7,26.1,19,26.1c14.8,0,15-6.9,15-11.6c0-12.8-9.8-7.2-9.8-10.3c0-2.4,2.6-1.7,4-1.7c3.8,0,7.6,0.3,11.5,0.3
			c3,0,5.9-0.3,8.8-0.3c0.4,0,0.9,0.3,0.9,1.1c0,3.5-5.7-0.9-5.7,9.6c0,3.4,0.2,5.6,0.2,6.8c0,1.3-0.1,1.7-0.8,2.1
			c-7.8,4.3-16.9,8-25.8,8c-24,0-27.7-21-27.7-27.4c0-13.8,8.4-31.9,29.1-31.9c11.4,0,18.3,5.3,20.5,5.3c1.8,0,2-2.3,3.3-2.3
			c1.2,0,1.2,1.8,1.2,3.1V108.2z"/>
		<path class="st0" d="M498.2,110.2c0,3.5,0,4.1,3.5,4.1h5.2c7.1,0,7.3-7.5,8.9-7.5c0.6,0,1.5-0.2,1.6,2l0.6,14.6
			c0.1,1.1,0.6,4-1.4,4c-2.6,0-0.3-8.7-8.9-8.7h-6.1c-3.8,0-3.4,1-3.4,5.8v10.5c0,5.1-0.3,8,5.6,8c20.3,0,19.2-10.7,22.3-10.7
			c0.3,0,0.9,0.2,0.9,1.8c0,6.4-4.8,13.1-11.6,13.1c-12.5,0-17.4-0.3-21.5-0.3c-2.5,0-6,0.3-10.5,0.3c-1.1,0-1.6-0.4-1.6-0.9
			c0-3.8,6.2,0.7,6.2-9.3V98.5c0-7.4-9.3-4.8-9.3-8c0-0.7,0.7-1.4,1.8-1.4c3.4,0,9.2,0.3,21.8,0.3c5.8,0,11.5-0.3,18.7-0.3
			c1.1,0,1.6,0.8,1.6,1.5l0.3,8.1c0.1,1.1,0.5,3.8-1.4,3.8c-3.9,0,2.5-9.6-13.3-9.6c-9.9,0-10.2,0.1-10.2,5.7V110.2z"/>
		<path class="st0" d="M547.6,135.9c0,10.2,8.3,7.1,8.3,10c0,1.4-0.8,1.2-2,1.2c-5.7,0-9.3-0.3-11.1-0.3c-3.3,0-9.6,0.3-10.1,0.3
			c-0.2,0-1.7,0.2-1.7-1.2c0-2.4,6.6-0.6,6.6-10.8V99c0-8.7-8.5-5.3-8.5-8.4c0-0.5,0.3-1.6,2.3-1.6c0.6,0,5.1,0.3,11.3,0.3
			c1.2,0,7-0.2,12.8-0.3c10.5-0.2,20.7,3.9,20.7,15.9c0,10.2-7.6,16.5-17.4,16.5c-8,0-8.4-2-8.4-2.4c0-0.6,0.2-1.6,1.2-1.6
			c0.7,0,2,0.5,3.8,0.5c9.9,0,10.6-9.2,10.7-11.4c0.1-2.1-0.7-14.1-13.4-14.1c-3.7,0-5,1.6-5,5.3V135.9z"/>
		<path class="st0" d="M610.5,88.4c16-0.2,28.2,10.4,28.2,27.8c0,11.5-5,31.5-31.1,31.5c-16.5,0-27.5-11.1-27.5-27.7
			C580.1,102,591,88.5,610.5,88.4 M610,144.1c14.1-0.2,18.7-11.2,18.7-24.8c0-18.1-10-27.6-20.6-27.4c-13.8,0.2-17.9,11.6-17.9,23.4
			C590.1,127.3,595.3,144.4,610,144.1"/>
		<path class="st0" d="M647.7,99.4c0-9.2-8.9-6.2-8.9-9.1c0-0.8,0.8-1.2,1.8-1.2c3.8,0,4.4,0.3,9.6,0.3c5.5,0,11.1-0.3,16.5-0.3
			c17.9,0,19.6,11.5,19.6,15.3c0,5.2-2.4,8.3-4.7,10.2c-2.4,1.9-4.7,2.6-4.7,3.4c0,0.5,7,12.4,12.8,22.7c0.7,1.3,2.3,1.3,3,1.3
			c0.8,0,1.6-0.5,2.4-0.5c0.7,0,1.2,0.5,1.2,1.1c0,2.5-5.4,4.3-8.7,4.3c-6.5,0-9.1-5.2-11.6-9.9l-6.9-13c-1.9-3.6-3.4-4.3-7.5-4.3
			c-4.3,0-3.8,0.6-3.8,3.4v14.2c0,8.8,8.1,5.4,8.1,8.3c0,0.7-0.7,1.2-2.5,1.2c-1.4,0-3.6-0.3-7-0.3c-4.4,0-8.5,0.3-12.6,0.3
			c-0.9,0-2.6,0.3-2.6-1.4c0-2.6,6.6,0.1,6.6-10.2V99.4z M657.8,114.1c0,2,3,2,5.5,2c12.5,0,12.9-4.6,12.9-9.4
			c0-8-4.6-14.1-12.9-14.1c-3,0-5.6,0-5.6,4.9V114.1z"/>
		<path class="st0" d="M713.6,98.4c0-3.9-0.8-4.3-4.2-4.3h-6.9c-9.2,0-6.8,10.7-10.5,10.7c-1.7,0-1.2-1.8-1.1-2.9l1.3-10.8
			c0.1-0.8,0.1-2,1.3-2c7.6,0,13.1,0.3,25.1,0.3c12,0,17.5-0.3,25.1-0.3c1.2,0,1.2,1.2,1.3,2l0.9,7.5c0.2,1,1.1,4.2-1.1,4.2
			c-3.3,0-0.7-9.1-10.1-8.8h-7c-3.4,0-4.2,0.4-4.2,4.3v37c0,10.1,10.5,7.7,10.5,10c0,2-1.6,1.7-4,1.7c-3.3,0-6-0.3-11.5-0.3
			c-5.5,0-8.2,0.3-11.5,0.3c-1.5,0-2.9,0.1-2.9-1.7c0-3.2,9.3,0.7,9.3-9V98.4z"/>
		<g>
			<path class="st0" d="M110.5,2.1c0.5,1.4,0.8,3,0.8,4.5l-0.4,0.3c-1.1-1.5-2.6-3.5-4.6-4.1c-1.5-0.4-3.5-0.2-4.9,0.6
				c-1.2,0.8-1.2,2.3-0.9,3.5c3,4.2,9.9,2.5,11.6,8.3c0,1.9-0.1,3.8-1.2,5.2c-2.3,2.9-6,3.2-9.4,2.6c-1.8-0.4-3.7-1.5-3.6-3.5
				c-0.1-1-0.8-2.2,0-3c1.2,0.8,1.2,2.4,2.5,3.4c1.8,1.9,5,2.3,7.4,1.2c1.4-0.8,2.3-2.2,2.3-3.7c-1.1-4.5-6.3-3.9-9.4-6.1
				c-1.1-0.8-2-2-2.3-3.4c-0.3-1.8,0.2-3.3,1.2-4.5c2.6-2.7,7.1-2.5,10.1-1.3L110.5,2.1z"/>
			<path class="st0" d="M69.9,2.3c-0.3,1.1,0.3,2.7-0.7,3.5c-0.8-0.7-1-2.6-2.6-2.3l-6.1,0.3c-0.8,2-0.2,4.6-0.1,6.9
				c2.1,0.8,4.5,0.4,6.4-0.3c0.8-0.3,0.7-1.9,1.6-1.4l0.3,5.7c-1.2,1.1-1.1-1.1-2.1-1.5c-2-0.4-3.9-0.4-6,0c-0.7,2-0.1,4.6-0.1,6.9
				c1.2,1.8,4,0.7,5.7,0.7c1.9-0.3,3.7-1.1,5.2-2.6c0.5-0.1,0.7,0.5,0.5,0.9c-0.5,1.4-1.3,3-2.8,3.4l-13.3,0.6
				c-0.4,0-0.4-0.5-0.3-0.7c0.7-0.5,1.8-0.9,1.9-1.9c0.2-5.4,0.1-10.9-0.6-16.3c-0.1-1.4-4-0.9-1.6-2.4c4.9,0.3,9.7-0.3,14.3-0.5
				L69.9,2.3z"/>
			<path class="st0" d="M124.6,2.5c-0.3,0.8-1.2,0.4-1.6,1.1l-0.8,1.4l-0.9,14.6c0,1.1,0.3,2.5,1.6,2.7c0.4,0.1,1,0.3,1.1,0.7
				c0,0.7-0.8,0.4-1.2,0.4l-6.7-0.4l-0.3-0.4c0.6-0.8,2.2-0.7,2.3-2.1c0.5-5.4,1.3-11.3,0.9-16.7c-0.4-1.2-2.3-0.8-2.2-2l0.5-0.1
				C119.6,2.4,122.4,1.7,124.6,2.5"/>
			<path class="st0" d="M147.2,7.3c1,1.1,0.3,2.7-0.4,3.7c-0.9,0.3-0.5-1.1-1-1.7c-1.8-1.1-3.8-1.6-6-2.1c-1.2,0.5-1.2,2.2-1.8,3.4
				l-3.3,12.7c-0.4,1.6,2.2,1.5,1.8,2.7c-2.6-0.3-5-1.3-7.6-1.9l-0.1-0.3c0.4-0.8,1.6-0.1,2.3-0.7l0.9-1.2l4.2-15.1
				c0-0.8-1-1.1-1.6-1.2c-1.6-0.3-3.8-1.6-5.3-0.1c-0.5,0.3-0.8,1.4-1.3,1c0.1-1.4,0.5-2.9,1.5-3.9C135.4,3.9,141.2,5.9,147.2,7.3"
				/>
			<path class="st0" d="M50.3,3.5c-1.5,2.2-1.2,5.2-1.2,7.9l-0.5,15.4c-0.8,0.4-1.5-0.7-2.3-1.1c-4.9-4.3-9.6-9.3-14.6-13.5
				c-0.9-1-3.1,0.8-3-0.9c1.9-1,3.9-1.5,5.8-2.3c1.5,0,0,1.2,0.4,2c3.7,3.8,7.9,7.9,12,11.4l0.4-0.5c0.2-5.3,0.5-10.2,0.1-15.4
				c-0.4-0.5-0.7-1.1-1.4-1.1C45.7,5.4,45,5.4,44.9,5C46,3.7,48,3.9,49.4,3.1C49.8,3.1,50.3,2.9,50.3,3.5"/>
			<path class="st0" d="M90.3,4.9c1,2.5-0.3,4.8-2,6.3c-0.4,0.4-1.1,0.5-1.2,1.1c1.9,3,4.1,6,6.6,8.7c0.7,1.1,3.1,0.1,2.5,1.6
				c-2,0.8-4.5,0.2-6-1.2c-2.5-2.3-3.4-5.3-5.7-7.7c-0.8-0.7-2-0.7-3.3-0.5c-1.1,2-0.2,4.8-0.1,7c0.3,1.8,2.3,1.5,3.4,2.4l-0.5,0.5
				l-8.4-0.2c0.3-1.2,2.4-0.8,2.3-2.6c0.4-5.3,0-10.9-0.3-16.2c-0.2-1.6-2.5-0.7-2.5-2.2c3.7-0.3,7.8-0.6,11.4,0
				C88,2.2,89.6,3.3,90.3,4.9 M84.6,3.6c-1.2-0.3-3-0.9-3.8,0.3c-0.1,2.5-0.4,5.2,0.3,7.5c1.4,0.4,2.7,0.1,4-0.2
				c1.2-0.4,2.3-1.5,2.4-2.7c0.3-1.2-0.1-2.7-1.1-3.7L84.6,3.6z"/>
			<path class="st0" d="M156,13.3c0.1,0.3,0.1,0.5,0,0.7c-0.7,0-1.9-0.5-1.9,0.7c-0.5,2.4-0.8,5.2-0.6,7.8l0.4,0.3
				c2.6-0.7,5.4-1.1,7.3-3c0-0.8-1.4-1.6-0.4-2.3c1.6,0.9,3.3,2.6,4.8,3.9c0,1.9-1.9-0.4-2.8,0.5c-3.9,1.4-8.6,1.1-11.4,4.4
				l-4.1,5.1c-0.5,1.1,2.3,2,0.4,2.4c-1.9-0.8-3.4-3-5.2-4.1c-0.3-0.5,0.3-0.8,0.7-0.7c0.7,0.3,1.5,0.4,2-0.1l5.2-5.9
				c0.4-3.9,1.3-8,0.8-12.1c-0.3-0.7-1.5-1.5-0.6-2.1C152.3,10.4,154.3,11.6,156,13.3"/>
			<path class="st0" d="M25,15.6c-0.3,0.8-0.5,1.6-0.1,2.3c4,3.9,8.2,8.1,12.6,11.5c1.2,0.7,2-1.1,3.1-0.4c-1.5,1.9-3.5,3.8-5.3,5.5
				c-1.1-0.5,0.5-1.2,0-2.2l-1.4-2l-10.4-9.4c-0.8-0.5-2-1.1-2.9-0.3c-0.4,0.3-0.9,0.5-1.3,0.4c-0.4-0.4,0.1-0.8,0.4-1.2l4.6-4.8
				C24.9,14.9,24.9,15.3,25,15.6"/>
			<path class="st0" d="M15.8,28.7c5.6,3.4,11.7,5.4,17.6,8.1c0.4,0.3,0.7,0.7,0.3,1.1c-6.5,2.2-13.2,4-19.6,6.5l-0.3,0.3
				c3.7,2.2,7.8,4.5,12.1,5.5c1.2-0.1,1.3-1.9,2.4-1.6c0,1.8-1.5,3.3-1.7,5.1c0.1,0.5-0.4,0.9-0.7,1.2c-1-0.3-0.6-1.5-1.1-2.2
				c-3.8-3-8.2-4.6-12.4-6.5c-1.2-0.4-2.9-0.9-4.2-0.3c-0.7,0.4-1.1,1.2-1.9,1.2C6,46,7.1,44.9,7.2,43.8c4.1-2.6,9.2-2.6,13.6-4.6
				c2.6-1,5.3-1.5,7.7-2.8c-3.8-2-7.9-3.8-12-5.2c-1.6-0.5-2.9,0.8-3.7,1.8c-0.7,0-0.5-0.9-0.3-1.4l2.4-5
				C16,26.8,15.4,28.1,15.8,28.7"/>
			<path class="st0" d="M174.3,37.5c3.3,3.6,4.1,10.1,1.8,14.4c-1.9,3.3-5.3,5.3-9,5.5c-3.8,0.3-7.2-1-9.5-4c-2.3-3-2.9-7.1-2.2-11
				c0.4-2.5,2-4.8,4.3-6.3C164,33.5,170.8,33.6,174.3,37.5 M170.4,37.4c-5.2-0.9-10.2,1.1-12.8,5.8c-1.4,2.6-0.8,6.4,0.9,8.7
				c1.6,1.9,3.7,2.8,6,3c3.9,0,7.3-1.7,9.8-4.8c1.8-2.5,2-6.4,0.5-9.1C173.8,39.3,172.3,37.6,170.4,37.4"/>
			<path class="st0" d="M65.4,38.4c3.8,5.8-6.2,10.1-1.7,15.8c4,4.1,9.7,8.4,7,14.5c-0.5,1.5-1.9,2.9-2.8,4.2l0.3,0.3l10.9,0.4v0.8
				c-5.6,6.4-14.5,8.6-22.7,6.2c-3.7-1.4-7.5-3.2-9.8-6.6l0.1-0.4c2.9-0.4,6.7,0.1,9.7-0.4c1.1-0.5,1.5-1.6,1.3-2.7
				c-2.5-3.9-8.2-6.4-7.5-11.8c0.1-2.9,1.9-5.2,4.1-7.1l0.1,0.1c0.4,2.8,0.8,5.6,2.8,7.7c2.3,3.1,6.6,4.6,7.4,8.3
				c1-0.7,0.7-2.1,0.3-3c-3.4-4.2-10.4-7.4-8.8-13.8c0.9-5,8-8.7,4.7-14.2c0.8-0.7,1.8,0,2.7,0.3L65.4,38.4z M63.5,38.9
				c-0.1,4.8-4.5,7.8-5.8,12c-1.6,7.4,9.1,9.2,9.2,16.2c-0.7,2.2-2.8,4.4-4.9,5.3c0.3-1.5,0.5-3.3,0.4-4.9c-1.5-3.5-5.6-4.9-7.7-8.3
				c-0.7-1.2-1.1-2.7-1.8-3.8c-0.5,0.8-1,1.8-1.1,2.9c-0.8,5,5.1,7,7.3,10.8c0.7,1.4,0.4,3.3-0.7,4.4c-1.9,2.7-5.6,1-8.2,1.8
				c2.2,2.2,5,3.1,7.8,4.1c6.1,1.2,13.1,0.1,17.1-4.2L67,75l-1-0.8c-0.8-2.3,2-3.4,2.8-5.3c3.4-6-3.6-9.9-7-14
				c-3.1-4.3,1.1-8.4,2.7-12.3C65.2,41.4,64.8,39.6,63.5,38.9"/>
			<path class="st0" d="M72,50.9c2.5,2.7,6.3,4.9,4.7,8.8c-0.7,1.9-1.6,3.8-3.1,5.3c-0.7-1.1-0.7-2.7-1.5-3.9
				c-2.1-4.2-9.6-6.6-7.3-12.3c0.5-1.9,1.5-3.7,2.8-5.2C68.6,46.1,69.6,49,72,50.9 M67.1,47.6c-0.9,1.2-1.3,3.3-0.5,4.8
				c2.3,3,5.9,5.4,7.5,8.7c0.4-0.3,0.5-0.7,0.7-1.1c1.9-4.1-3.2-6.4-5.3-9.2C68.6,49.8,67.8,48.4,67.1,47.6"/>
			<path class="st0" d="M6.4,54.3c4.1,1.5,8.9,1.2,13.2,2c2.4,0.5,5.2,2.4,6,5c1,3.7,0.6,8-1.9,10.9c-4.9,4.9-12.4,1-18.4,1.6
				c-1.5,0.1-1.2,2.3-2.4,2.2c0-2.2,0.1-4.8,0.4-6.9l0.4-0.4c0.7,0.7,0.7,2.2,2.1,2.2l13.1,1c2.4-0.3,4.6-1.8,5.3-4.1
				c0.7-2.6,0.7-6-1.2-8c-4.2-3.4-10.4-2.3-15.7-2.9c-1.4,0-1.8,1.5-2.3,2.5c-0.7-0.1-0.7-0.9-0.5-1.5c0.4-1.5-0.2-3.4,0.8-4.6
				C6,53.1,5.8,54,6.4,54.3"/>
			<path class="st0" d="M178.5,59.7l-0.1,13.5c-1.3,0.4-3.3,0.4-4.4-0.3c0.5-1.1,2.6-0.5,2.6-2.3c0-2,0.5-4.4-0.2-6.3
				c-2.2-0.4-4.9-0.4-7.2,0c-0.5,1.9-0.9,4.9,0.3,6.5c0.4,0.5,1.8,0.4,1.4,1.2c-1.9,0.3-4.1,0-6.1,0c-0.3-0.1-0.1-0.5,0.1-0.8
				c3.3-0.4,1.5-4.2,2.2-6.4l-0.8-0.7c-2.9,0.6-7.2-1.5-8.3,2.1c0,0.4-0.3,0.7-0.5,0.9c-0.7-0.3-0.7-1.2-0.7-1.9l0.1-6
				c0.1-0.3,0.5-0.3,0.7,0c0.3,0.8,1,1.8,1.9,1.9c5.6,0.1,11.3,0.4,16.6-0.3C177.4,60.8,177.8,56.1,178.5,59.7"/>
			<path class="st0" d="M124.8,37.8c1.2,1.2,1.9,2.6,2.3,4.2c1.5,0.5,3.4,1.3,4.1,3.1c0.5,1.2,0.7,2.9,0.3,4.1
				c1.8,0.5,3.9,1.8,4.8,3.8c0.8,2.2,0,4.3-1.1,6.1c1.5,0.8,2.7,2.3,3.3,3.9c0.7,2.4-0.3,4.8-2.2,6.3l-2.3,1.1l-11.8,0.2
				c-0.7,2.4-0.5,5.4,1.4,7.2c2.1,2.7,6,0.9,8.3,3.2l-0.3,0.3l-23.1,0.1l-0.3-0.3c2.4-2.6,7.1-0.7,9-4.4c1.2-1.6,1.2-4,0.9-6.1
				l-11.6-0.4c-1.6-0.4-3.1-1.7-4-3.2c-0.7-1.6-0.4-3.8,0.5-5.3c0.4-1.2,2.2-1.5,2.2-2.6c-1.4-1.2-1.8-2.7-1.8-4.5
				c0.1-1.5,0.7-2.7,1.7-3.7c0.9-0.8,2.2-1.2,3.3-1.5c0-1.9-0.2-4.1,1.3-5.6c0.8-0.8,1.8-1.5,2.8-1.7c0.5-2,1.8-4.2,3.8-5.2
				C118.9,35.4,122.7,35.8,124.8,37.8 M115.8,39.8c-0.4,0.7-1.2,1.5-0.8,2.3c1.5,0.3,2.3,2.4,3.8,2.7c0-2.3,0.2-4.5,0-6.7
				C117.7,38.2,116.6,38.7,115.8,39.8 M121.2,38c-0.1,2.2-0.3,4.6,0.2,6.9c1.2-0.8,2.2-2.5,3.5-2.7c0.3-0.4,0.1-0.8,0-1.1
				C124.4,39.5,122.7,38.4,121.2,38 M113.6,44c-1.2,0-2.4,1-3,2c-0.4,1.1-0.5,2.6,0.4,3.4c2.3,2,4.9,3.5,7.4,4.7l0.2-6.3
				C117.2,46.5,116,44.2,113.6,44 M126,44c-1.9,0.3-3,2.3-4.5,3.6l-0.1,6.4l0.3,0.4c2.6-1.5,5-3,7.5-4.8c0.8-0.9,0.8-2.6,0.3-3.7
				C128.8,44.6,127.5,43.8,126,44 M110.4,51.7l-2-0.3c-1.2,0.3-2.6,1.2-2.8,2.6c-0.5,1.5,0.1,3,1.2,3.9c3.8,1.6,7.8,3.1,11.6,4.2
				l0.1-5.3L110.4,51.7z M130.8,51.3c-2.9,1.1-5.2,3-7.9,4.5c-2.7,0.8-0.9,4.4-1.2,6.4l10.9-3.7c1.1-0.4,2-1.6,2.2-3
				c0.1-1,0-2.2-0.8-2.9C133.1,51.8,132,51.3,130.8,51.3 M132.1,60.7l-10.2,3.7c-0.1,1.3-0.3,3,0.2,4.4c3.8,0.1,8.2,0.1,11.8-0.2
				c1.3-0.4,2.6-1.7,2.8-3c0.1-1.4-0.3-2.7-1.2-3.7C134.5,60.9,133.5,60.5,132.1,60.7 M107.5,60.9c-1,0.3-1.9,0.6-2.6,1.5
				c-0.7,0.9-1.1,2.2-0.7,3.4c0.3,1.4,1.4,2.4,2.7,2.9l10.3,0.2c1.9-0.3,0.7-3,1.1-4.4C114.8,63.1,111.3,61.4,107.5,60.9"/>
			<path class="st0" d="M16.5,90.9c0.3,0.7,0.3,1.8,0.1,2.5c-0.8-0.7-1.5-2.3-2.9-2.3c-1.1-0.1-1.8,1-2.2,1.8c-0.3,1.8,0,3.7,0.8,5
				c0.5,0.9,1.8,1.2,2.7,0.7l1.6-1.4c0.4,0.5-0.4,1.1-0.7,1.5c-0.9,1-2.6,1.5-4,0.8c-1.2-0.5-1.9-1.8-2.3-3c-0.6-1.4,0-2.9,0.5-4.2
				C11.6,90.1,14.5,89.9,16.5,90.9"/>
			<path class="st0" d="M5.1,96.2c1.2-1.6,1.5-3.8,2.4-5.6c0.7-0.5,1.5,0,2.2,0c0.3,0.5-0.8,0.7-0.8,1.2l0.4,6.9
				c0.1,0.3,0.7,0.3,0.5,0.7c-0.9,0.1-2.4,0.4-3.1-0.1C7.7,98.2,7.4,96.2,7,95c-0.9,1.4-1.1,3.1-2,4.4c-1.1-0.1-1-1.5-1.5-2.2
				c-0.3-0.7-0.3-1.5-0.8-2c-0.5,1-0.4,2.5-0.1,3.4l0.7,0.8c-0.5,0.7-1.6,0.2-2.3,0.2c0.8-2.2,0.7-4.8,0.6-7.5
				c-0.1-0.7-1.1-0.8-0.9-1.4C4.4,89.4,3.5,94.5,5.1,96.2"/>
			<path class="st0" d="M21.9,96c0.5,0.4,0.7-0.4,0.8-0.8l1.6-4.5c0.7-0.6,1.8-0.2,2.3,0l-0.8,1.1l0.3,6.8c0.1,0.4,0.8,0.4,0.5,1
				c-0.8,0.1-2,0.1-3,0c0.9-1.2,0.3-3,0.4-4.5h-0.3l-1.9,4.2c-1.2,0-1.1-1.6-1.6-2.4l-0.8-1.8c-0.3,1.2-0.8,3.3,0.6,4.2
				c-0.4,0.5-1.5,0.1-2.2,0.3c-0.7-0.4,0.4-1,0.4-1.5c-0.1-2.2,0.5-4.5,0-6.5l-0.8-0.7c0.3-0.7,1.5-0.3,2.2-0.3
				C20.6,92.2,20.9,94.3,21.9,96"/>
			<path class="st0" d="M159.6,90.4c-1.1,0.9,0.3,2,0.7,2.8c0.7-0.4,1.1-1.1,1.2-1.8l-0.7-0.9c1.2-0.4,3.3-0.1,4.8-0.3
				c0.5,0.4-0.4,0.6-0.3,1c0.1,0.8,0.7,1.4,1.1,2c0.7-0.4,1.1-1.1,1.2-1.8l-0.7-0.9c1.2-0.5,2.9,0,4.2-0.2c0.5,0.3,0,0.7-0.3,1
				c0.3,1.8,1,3.4,1.7,4.9c0.5-1.8,2.7-4,0.8-5.6l0.4-0.4l7.2,0.1c0.7,0.5-0.5,0.7-0.3,1.2l0.2,6.8c0.3,0.4,1.1,0.4,0.8,0.9
				c-1.9,0-3.9,0.3-5.9,0.2c-0.5-0.5,0.4-0.8,0.3-1.4c-0.1-2.3,0.4-4.8-0.4-6.8c-1.5,2.6-1.9,5.7-3.4,8.2c-1.2-0.3-1-1.8-1.5-2.6
				c-0.6-1.6-1.1-3.3-1.9-4.8c-0.8,0.3-1.2,1.4-1.6,2.1c0.7,1.8,1.5,3.5,3.2,4.7c-0.7,1-2.4,0.4-3.5,0.4c-0.4-0.4,0.4-0.5,0.3-1.1
				c0-0.8-0.8-1.3-1.2-2c-0.5,0.3-1.1,1.1-1.4,1.6c-0.3,1,1.1,0.7,1,1.5l-4.8,0c-0.4-0.3,0.3-0.5,0.3-0.8c-0.3-0.9-0.7-1.8-1.2-2.3
				c-0.7,0.5-1.5,1.2-1.4,2.2c0.3,0.4,1,0.3,1,0.9c-0.9,0.1-2.5,0.2-3.4,0c0-0.8,1.2-0.9,1.5-1.9l1.6-2.5c-0.8-1.5-1.6-3.3-3-4.5
				c0.3-0.5,1.5-0.1,2.2-0.4C158.6,90.2,159.3,90,159.6,90.4 M178.1,91.1c-0.4,2.2-0.2,4.8,0,6.9c0,0.3,0.4,0.3,0.5,0.1l0.2-6.1
				C178.8,91.8,178.8,91,178.1,91.1 M163,91.7c-0.8,0.7-1.5,1.6-1.9,2.6l1.6,3.1c0.5,0.7,1-0.3,1.2-0.5
				C166.4,95.2,163.9,93.2,163,91.7"/>
			<path class="st0" d="M64.2,102.2c4.7-5.5,12.5-4.6,19.4-5.3l0.3,0.1c-2.3,6.5-10.5,2.9-14,8.5c1.5,0.9,3.3,2.3,3.7,4.2
				c0.1,0.4,0.7,0.7,0.6,1.2l-3.8-0.7c-2.5,1-4.6,2.9-7.5,2.3c-2.9-0.5-5.6-2.4-8.7-1c-1.2-1.5-0.8-3.9-0.3-5.7
				c1.4-0.6,2.6,0.7,4.1,0.4c-1.4-1.6-2.6-4.5-5-4.9c-4.1-0.1-8.6,0.6-11-3.1l0.4-0.2c6,0.1,12.2-3.5,17.4,0.5
				C61.2,99.5,62.7,101,64.2,102.2 M58.6,99.9c-3.3-2.6-8.3-1.3-11.8-0.4c2.3,0.4,4.9-0.4,7.1,0.4c3.7,1.2,5.1,5.6,8.5,7.3
				c-1.9,1.2-5,1.1-7.1,0.7c-0.3,0.3-0.3,1.1,0,1.4c2.4-0.3,4.6,0.8,6.8,1.5c3.5,1.4,5.7-2.1,8.8-2.3c-1.2-1.2-3-1.2-4.5-1.7
				C63.7,104.7,61.5,101.5,58.6,99.9 M66.3,102.9c-0.7,0.5-0.4,1.2,0.3,1.6c1.4,1.4,2.6-0.8,3.7-1.5c2.6-3,6.7-2.3,9.6-4
				C74.8,99,69.6,99.2,66.3,102.9"/>
			<path class="st0" d="M161.7,111.6c-0.5,0.8-2.2,0.7-2.2,2.1c-0.1,1.9-0.9,3.8-0.4,5.7c5.3,0.8,10.9,1,16.5,1.6
				c1.5,0.1,1.6-1.6,2.4-2.3l0.4,0.4c-0.4,2.6-0.3,5.3-0.9,7.6c-0.9-0.5-0.7-2.6-2.3-2.7c-5.4-0.7-11-1.3-16.5-1.3
				c-0.7,1.8-1.1,4.1-0.5,6.1c0.6,0.8,1.5,0.9,2.1,1.6c-1.4,0.5-2.9-0.1-4.1-0.4l-0.4-0.6l2-17.8
				C158.7,110.7,160.8,110.9,161.7,111.6"/>
			<path class="st0" d="M25.5,111.1c-0.2,5,3.7,11.8-1.4,15.5c-1.4,0.8-3.4,0.6-4.8-0.1l-1.5-1.2c-0.8,1.5-1.6,3.6-3.5,4.4
				c-1.5,0.8-3.5,0.7-5,0.2c-1.9-0.7-3.4-2.4-4-4.3l-1.4-10.9c1.1-1.4,1,1.2,2.2,1.1c5.9,0.4,11.3-0.8,16.7-1.4
				c1.6-0.6,1.2-2.5,2.3-3.4L25.5,111.1z M24.4,117.4c-2.2-0.3-4.5,0.3-6.7,0.6c-1.1,1-0.2,2.9-0.1,4.2c0.3,1.1,1.1,2,2.2,2.3
				c1.5,0.1,2.9-0.6,3.9-1.7c1.2-1.1,1.2-2.8,1.1-4.4L24.4,117.4z M15,118.2c-3-0.1-5.8,0.3-8.6,1.3c-0.4,1.6-0.4,3.8,0.3,5.3
				c0.6,1.6,2.2,2.6,3.8,2.6c1.6-0.1,3.3-0.7,4.3-2.1c1.1-1.8,0.8-4.1,0.5-6.1L15,118.2z"/>
			<path class="st0" d="M128.8,95c0,3.1,3.5,0.9,5.3,1.9c0.6,0.5-0.3,1.8,0.7,1.9l5.8,0.1c0.4,1.5,0.7,3.8-0.4,4.9
				c1.2,1.1,0.4,3.1,0.6,4.6c-1.2,1-0.4,3.1-0.7,4.6l0.7,0.7c-0.3,1.3,0.6,3.4-0.7,4.2c-0.3,2.3-0.3,5,0,7.3
				c1.1,0.7,0.4,2.6,0.6,3.8l-0.1,0.6c-3.3,0.3-6.9,0.2-10.2,0c-0.3-1.3-0.8-3.7,0.4-4.8l0-6.9l-0.7-0.5c0.1-1.6-0.1-3.4,0.3-4.8
				c-0.7-1.1-1.9-1.8-3.1-1.5c-0.9,0.1-1.9,0.8-2.3,1.8c0.4,1.4,0.3,3.1,0.1,4.6l-0.4,0.4l-0.2,6.8c1.2,1.1,0.6,3.1,0.7,4.6
				l-0.5,0.3l-10.1-0.1c-0.3-1.2-0.3-2.9,0-4.1l0.5-0.3l0.1-6.8c-1.2-1.4-0.8-3.8-0.3-5.3c-0.1-0.9-1.1-1.6-1.9-1.9
				c-1.1-0.4-2.3,0-3.3,0.8c-0.7,0.5-0.4,1.2-0.1,1.9c-0.3,1.4,0.6,3.1-0.7,4c0,2.5-0.2,4.9-0.1,7.1c1.2,1.1,0.6,3.1,0.6,4.5
				l-10.2,0.3l-0.4-0.3c0-1.5-0.7-3.5,0.7-4.6l0-6.8c-1.2-0.9-0.6-3.1-0.7-4.6c1.2-1.1,0.5-3.1,0.7-4.5c-1.1-1.2-0.6-3-0.6-4.6
				c1.2-0.4-0.3-0.9-0.1-1.6l0.2-3.8l6.5-0.2c0.4-0.7-0.4-2.2,0.9-2l4.1,0c0.8-0.4,0-1.8,1.1-1.9L128.8,95z M113.2,96.7
				c-0.7,0.4,0,1.4-0.8,1.8l-4.8,0.2c-0.1,0.3-0.3,0.7,0,0.8l24.5,0c0.3-0.3,0.3-0.7,0.1-0.8l-3.9-0.1c-1.4,0.4-0.8-1.2-1.4-1.8
				L113.2,96.7z M101,100.7l-0.3,0.5c0.7,0.8,2.2,0.3,3.3,0.4l34.8-0.2c0.1-0.1,0.1-0.5-0.1-0.7L101,100.7z M101.8,102.9h-0.3
				c-0.1,0.7-0.3,1.2,0,1.8c12,0.1,24.8,0.3,36.8-0.2c0-0.4,0.1-1.1-0.1-1.6L101.8,102.9z M101.1,105.9c-0.5,0-0.4,0.7-0.1,0.8
				l37.7,0.1c0.3-0.1,0.3-0.6,0.1-0.8L101.1,105.9z M138.2,108l-35-0.1l-1.8,0.3c0,1.8-0.3,3.8,0,5.6c1.6,0.3,3.5,0.1,5.3,0.1
				c0.3-1.6,1.2-3.3,2.8-4.1c1.2-0.7,3-0.8,4.5-0.3c1.8,0.7,3,2.6,3.3,4.3c1.5,0.1,3.4,0.1,5,0c0.4-1.5,1.2-3,2.7-4
				c1.2-0.8,3-1.1,4.5-0.4c1.9,0.8,3,2.6,3.6,4.5l4.6,0l0.5-0.4L138.2,108z M107.4,115.1c-2-0.3-4.5,0-6.7,0v0.5
				c2.1,0.4,4.5,0.3,6.5,0.3l0.3-0.3L107.4,115.1z M117.4,115.1c-0.5,0-1.4,0-0.9,0.8l6.8,0c0.1-0.1,0.1-0.5-0.1-0.7L117.4,115.1z
				 M132.2,115.3c-0.1,0.1-0.3,0.5,0,0.7c2.2,0,4.5,0.1,6.5-0.2c0.1-0.1,0.3-0.5,0-0.7C136.7,115,134.2,114.8,132.2,115.3
				 M101.4,117.3l0,8.6c1.6,0,3.7,0.1,5.3-0.2c0.1-2.7,0.2-5.9,0-8.6C105.1,117,102.9,116.9,101.4,117.3 M122.5,117.2
				c-1.6-0.3-3.7-0.4-5.3,0c-0.1,3-0.1,5.8,0,8.6l5.2,0.1l0.3-0.3L122.5,117.2z M132.9,117.3l-0.1,8.2l0.6,0.5l4.9-0.3
				c0-2.7,0.1-5.7-0.2-8.6C136.4,117,134.4,116.9,132.9,117.3 M101.1,127.1c-0.4,0-0.4,0.5-0.3,0.8c2.2,0,4.6,0.5,6.7,0
				c0.1-0.3,0.1-0.5-0.1-0.8L101.1,127.1z M116.6,127c-0.4,0.2-0.3,0.7-0.3,1l5.7,0.1c0.5,0.1,1.5,0,1.2-0.8
				C121.1,126.9,118.8,127.2,116.6,127 M132.1,127.2c-0.1,0.2-0.1,0.6,0.1,0.8c2,0,4.5,0.1,6.5-0.2c0.1-0.3,0.1-0.7-0.1-0.8
				C136.5,126.9,134.1,127,132.1,127.2"/>
			<path class="st0" d="M124.6,27.8c11.3,1.2,22.9,10.2,26.1,21.4c1.2,4.1,1.7,8.4,1.6,13.1l0,56.5c-1,10.3-7.9,20.2-17.5,25
				c-4.8,2.3-10.1,3.6-15.9,3.3l-59.3-0.1c-12-0.8-23.7-10.5-27-21.9c-2.4-6.9-1-15-1.3-22.5l0.1-47c0.8-11.4,10.1-22.6,21-26.2
				c2.8-0.7,5.7-1.4,8.8-1.7L124.6,27.8z M58.2,33.7c-8.4,1.3-17.1,8-19.8,16.3c-2.7,8.3-1.3,18.7-1.5,27.6c0.6,3.1,3.6,6.3,6.6,6.8
				l36.2,0.1l3.3-0.4c2.9-1,5.4-3.8,5.7-7l0-34.2l-0.3-3.7c-1-3-3.4-5.2-6.4-5.8C73.7,33.4,66,32.8,58.2,33.7 M102.7,33.2l-2.5,0.4
				c-2.6,1-5,3.2-5.5,5.9c-0.5,12.5,0,25.7-0.1,38.4c0.7,3.1,3.7,5.8,6.8,6.4c12.9,0.2,26,0.3,38.4,0.1c3-0.8,5.8-3.7,6.4-6.8
				l0.2-16.3c0.8-10.1-3.9-18.9-12.2-24.2C125.4,30.9,113.5,33.9,102.7,33.2 M45.2,90.2l-1.5,0.3c-3.1,0.4-6.1,3.4-6.8,6.4
				c0,8.3-0.5,16.5,0.5,24.6c0.6,1.5,2.3,1.5,3.8,1.5c2-0.3,3.8-1.5,5-3.2c1.4,1.8,3.3,3.1,5.5,3.2c2.3,0,4.3-1.4,5.7-3.2
				c1.6,1.9,3.7,3.4,6.4,3.1c2-0.1,3.7-1.6,4.9-3.2c1.5,1.9,3.7,3.2,6.3,3.1c2-0.1,3.8-1.6,5.2-3.1c0.8,1.4,2.2,2.4,3.6,2.8
				c1.5,0.4,3.5,0.4,4.8-0.6l0.2-24.9l-1.2-3.1c-1.1-1.9-3.1-3.1-5.2-3.7L45.2,90.2z M102.3,90.2l-1.1,0.1c-2.9,0.4-5.7,2.9-6.4,5.7
				c-0.5,12.8-0.3,26.1-0.2,39.1c0.6,3,3.6,5.3,6.4,6.1l15.4,0.1c4.4,0.4,8.8,0.1,12.8-1.4c8.7-2.9,16.1-11.8,17.1-20.9
				c0.1-7.2,0.5-14.8-0.1-22.1c-0.4-3-3.4-5.9-6.3-6.5L102.3,90.2z M46.2,122.7c-1.3,1.1-2.8,1.8-4.6,2.1c-1,0.3-2.3-0.3-3,0.1
				c0.7,2.2,1.8,4.2,3.3,6c1.8,0.1,3.3-1.5,4.5-2.7c1.4,1.8,3.3,3.2,5.7,3.1c2.3,0.1,4.1-1.6,5.6-3c1,1.1,1.8,2.2,3.1,2.6
				c1.8,0.7,4,0.6,5.6-0.4c1.1-0.4,1.6-1.6,2.6-2.1c1.5,1.9,3.6,3.1,6,3c2-0.2,3.7-1.5,5-3c1.1,1.1,2.5,2.4,4,2.8
				c1.5,0.4,3.3,0.3,4.5-0.6c0.1-2.1,0.5-4.2,0-6.1c-3,0.8-6.1,0-8.5-1.7c-1.4,1-2.7,1.8-4.5,2.1c-2.6,0.4-4.8-0.8-6.7-2.1
				c-1.2,1.1-2.6,1.6-4.1,2.1c-2.4,0.4-4.8-0.2-6.5-1.7c-1.1-0.8-1.6,0.8-2.6,1C52.6,125.5,48.8,124.6,46.2,122.7 M46.9,131.3
				c-1.2-0.8-2.2,1.1-3.4,1.4v0.3c2.7,3.2,6.2,5.4,9.8,6.8c8.2,3.2,19.1,1.1,28,1.6l3-1c2.7-1.6,4.6-4.5,4-7.6
				c-2.9,0.8-6.3,0.2-8.4-1.9l-2.4,1.5c-2.7,1.4-6.3,0.6-8.6-1.5l-2.6,1.5c-2.8,1.1-6.4,0.7-8.6-1.5c-1.8,1-3.5,2.1-5.7,2.1
				C50.1,133.2,48.4,132.4,46.9,131.3"/>
			<path class="st0" d="M28.1,128.5c1.7,4.9,8.1,10,3.3,15.2c-1.2,0.9-3,1.4-4.5,1.1c-1.2,0-2.2-1.1-3.3-1.1l-4.7,9.1
				c-0.4,1.1,0,2.2,0.1,3.1c-0.1,0.4-0.7,0.6-0.8,0.3c-1.4-1.4-1.9-3.1-1.7-5c0.8-3.4,3.4-6,4.6-9.1c0.4-1.4-0.3-2.6-1.2-3.4
				c-2.3,0.8-4.5,1.9-6.5,3.6c-0.9,1.1,0.2,2.5-0.1,3.5c-0.7,0.4-1-0.4-1.2-0.8c-0.7-2.3-2.6-4.3-3.2-6.7c0.8-0.5,1.4,0.7,2.2,0.8
				c5.7-1.5,10.6-4.8,15.8-7.7C28.7,130.7,26.1,128.4,28.1,128.5 M28.7,134.4c-2.3,1.1-4.9,1.9-6.7,3.7c0.4,1.6,1.2,3.3,2.7,4.2
				c1,0.3,2.5,0.4,3.3-0.2c1.5-0.7,2.5-2.2,2.6-3.7C30.5,136.8,30.3,134.9,28.7,134.4"/>
			<path class="st0" d="M160.5,134.5c1.1,1.4,1.2,3,1.4,4.8l0.9,0.3c4.2-0.7,9.4,0.8,12.5-2.5c0.7,0.3,0.4,1,0.3,1.5
				c-2.4,5.6-9.4,2.9-14,3.9c-1.1,0.5-1.9,1.6-2,2.9c2.3,1.6,4.5,3.9,7.5,3.5c0.8-0.4,1.5-2.2,2.3-1.1c-1.6,2.3-2.8,4.9-4.7,7
				c-1.1-0.4,0.1-1.7-0.4-2.5c-4.4-3.8-9.3-6.1-14.1-9.1c-0.7-0.3-1.6-0.4-2.3,0.4c-0.3,0.3-0.5,0.7-1.1,0.5
				c-0.5-0.7,0.1-1.2,0.4-1.8C149.8,138.2,154.3,128.5,160.5,134.5 M155.1,135.9c-1.8,0.3-3.7,2-4.1,3.8c1.8,1.7,3.8,2.7,5.9,3.9
				c1.6,0.8,2-1.6,2.8-2.6c0.7-1.2,0.3-3-0.7-3.9C158.1,136,156.6,135.9,155.1,135.9"/>
			<path class="st0" d="M42.5,146.5c0.3,0.4,0.8,0.7,0.7,1.1c-0.8,0.5-1.6-0.4-2.5,0.1c-3.8,4.2-7,9-10,13.8
				c-0.7,1.2,0.7,2.2,0.8,3.2c-0.5,0.4-1-0.3-1.4-0.5c-1.6-1.5-3.7-2.3-5-3.8c0.5-0.7,1.2,0.1,1.9-0.2l1.8-1.2l8.2-11.8
				c1.1-1.4,0.1-3-0.7-4.1c0.1-0.7,0.9-0.3,1.2,0L42.5,146.5z"/>
			<path class="st0" d="M153.4,151.8c1.5,3.1,1.4,7.7-0.8,10.6c-3.3,4.5-8.4,6-13.7,5.2c-3-0.7-5.9-3.4-7-6.2
				c-1.5-3.3-1.4-7.8,0.8-10.5c3.4-4.1,8.3-5.9,13.5-5.1C149.1,146.5,152.1,148.9,153.4,151.8 M141.7,147.6c-3,0.1-5.9,1.4-7.5,4.1
				c-1.5,2.9-0.6,6.8,1.3,9.2c1.9,2.9,5.1,4.7,8.6,4.9c2.9-0.1,5.8-1.7,7.2-4.4c1.2-2.5,0.9-5.7-0.4-8
				C148.8,150.2,145.5,147.6,141.7,147.6"/>
			<path class="st0" d="M64.5,159.4c0.2,4.1-1.2,7.9-4.4,10.5c-6,4.7-13.1-0.1-19.2-0.9c-0.3-0.1-0.3-0.7,0-0.8
				c1.4,0.1,2.6-1.1,2.8-2.5l3.6-14.7c0.1-1.5-1.9-1.4-2.1-2.6l0.4-0.3C52.7,149.9,62.7,150.4,64.5,159.4 M53.3,151.5
				c-0.8-0.3-1.9-0.7-2.7,0c-1.5,5.2-3.1,10.2-4.2,15.5l0.3,1c2.9,1.7,6.7,3.4,10.1,1.6c1.8-0.7,3-2.6,3.7-4.2
				c0.9-3,1.3-7.4-0.9-9.9C58,153.3,55.6,152.2,53.3,151.5"/>
			<path class="st0" d="M126.9,153c1.4,1.2,1.8,3,1.5,4.8c-0.4,1.6-1.3,3.1-2.8,4.1c-1.9,1-4.6,1.8-6.4,0.6c0.5-0.9,2-0.3,3-0.8
				c1.4-0.3,2.7-1.2,3.1-2.6c0.3-1.2,0.1-2.9-0.8-4c-1.4-1.7-3.8-2.4-6-2l-0.5,0.8c0.3,5.3,1,10.4,1.7,15.6c0.3,0.9,0.9,1.9,1.9,2
				c0.5,0.3,1.4-0.1,1.8,0.4c-0.4,1.1-1.9,0.5-2.7,0.8c-1.9-0.1-3.9,1.2-5.7,0.3c0.4-0.8,2-1.2,1.8-2.5c-0.6-5.4-0.6-11-1.8-16.2
				c-0.4-1.5-3.1-0.4-2.6-2c3.9-0.2,7.8-1.7,11.8-0.9L126.9,153z"/>
			<path class="st0" d="M86.3,153.8c0.4,0,0.8-0.3,1.4-0.1l0.6,4.9c-1.6,0.4-1.5-2-2.9-2.7c-2.6-2.3-5.9-3.4-9.4-2.5
				c-1.9,0.8-4.1,2.1-4.9,4.1c-1.2,2.9-1.3,6.8,0.2,9.7c1.2,2.7,4.1,5.2,7.2,5.1c2.4-0.1,5-0.4,6.4-2.6c0.3-1.8,0.7-3.8,0.1-5.6
				c-0.5-0.9-1.9-0.5-2.5-1.5l0.3-0.4l6.7,0.1c0.3,0.1,0.3,0.4,0.1,0.7c-2.7,1.4-1.1,5.2-1.7,7.8c-4.2,2.5-10.1,4.3-15.1,2
				c-3.3-1.3-5.2-4.7-5.8-8c-0.3-4.6,1.3-9,5.4-11.5C76.5,150.9,82.5,151.5,86.3,153.8"/>
			<path class="st0" d="M108.1,153.2c-0.3,1,0.1,2.3-0.7,3c-1.2-0.4-0.7-2.2-2.1-2.3c-2.2-0.1-4.6-0.3-6.7,0.2
				c-0.9,2-0.4,4.8-0.2,6.9c1.8,0.9,4.1,0.4,6,0.1c1.1-0.1,0.9-2,2-1.5c0,1.6,0,3.8,0.2,5.7c-1.2,0.7-0.9-1.2-1.8-1.6
				c-1.8-0.7-4.1-0.3-6-0.2l-0.5,0.7c0.1,2.2-0.5,5.2,0.6,7.1c3.8,0.5,7.8,0.2,10.5-2.5c0.5,0,0.5,0.5,0.5,0.9
				c-0.4,1.4-1.5,2.9-2.8,3.4l-13.5,0.3c-0.1-0.1-0.3-0.1-0.3-0.4c0.4-0.7,1.4-0.7,1.8-1.5c0.7-4.9,0.5-10.9,0.1-16.2
				c-0.1-1.3-1.8-1.8-2.6-2.4c0-0.8,0.8-0.5,1.2-0.7c4.8,0.5,9.4-0.3,14-0.2L108.1,153.2z"/>
		</g>
	</g>
</g>
</svg>
