<svg id="Layer_1" data-name="Layer 1" xmlns="http://www.w3.org/2000/svg" viewBox="0 0 33.56 31.95"><defs><style>.cls-1{fill:#fff;}</style></defs><title>GiftIcon</title><path class="cls-1" d="M1.07,18H.77a.06.06,0,0,0-.05.06s0,.06.07.07.14.06.13.3l0,.92a.2.2,0,0,1-.1.2s-.07,0-.07.07a.06.06,0,0,0,.06.06h.4a.06.06,0,0,0,.06,0s0,0,0,0,0-.06-.07-.07-.14,0-.13-.29h0s0-.61,0-.63l.37,1s0,.08.07.08.06,0,.07-.07L2,18.71l0-.06v0l0,.7v0c0,.13,0,.15-.08.16s-.06,0-.06.07,0,0,0,0,.08,0,.08,0h.41c.06,0,.11,0,.11-.06s0-.06-.06-.07-.12,0-.13-.22l0-1c0-.15.06-.17.11-.19s.07,0,.07-.07,0-.05-.08-.05H2.14c-.05,0-.06,0-.07.06L1.61,19.2v0h0L1.16,18.1C1.13,18,1.11,18,1.07,18Z" transform="translate(-0.72 -1.56)"/><path class="cls-1" d="M2.46,18.92a.73.73,0,0,0,.69.8.66.66,0,0,0,.65-.47.05.05,0,0,0,0-.05s0,0-.08.07a.55.55,0,0,1-.41.24c-.37,0-.51-.47-.51-.76s.15-.61.43-.61.42.28.48.41,0,.09.08.09h0l0,0a.17.17,0,0,0,0-.08h0l0-.44s0,0,0,0,0,0-.05.05a.1.1,0,0,1,0,0l-.08,0A.75.75,0,0,0,3.18,18C2.65,18,2.46,18.55,2.46,18.92Z" transform="translate(-0.72 -1.56)"/><path class="cls-1" d="M4.18,18H3.87s0,0,0,.06,0,.06.07.07.14.06.13.3l0,.92c0,.14-.06.17-.11.2a.07.07,0,0,0-.06.07.06.06,0,0,0,.06.06h.4a.06.06,0,0,0,.06,0s0,0,0,0,0-.06-.07-.07-.14,0-.13-.29h0s0-.61,0-.63.38,1,.38,1,0,.08.07.08.06,0,.07-.07l.38-.92a.28.28,0,0,1,0-.06v0l0,.7v0c0,.13,0,.15-.09.16s0,0,0,.07a.1.1,0,0,0,0,0s.09,0,.09,0h.4c.07,0,.12,0,.12-.06s0-.06-.07-.07-.12,0-.12-.22l0-1c0-.15.05-.17.11-.19s.07,0,.07-.07,0-.05-.08-.05H5.25a.07.07,0,0,0-.07.06L4.72,19.2v0h0L4.27,18.1C4.24,18,4.22,18,4.18,18Z" transform="translate(-0.72 -1.56)"/><path class="cls-1" d="M30.76,18h-.29l0,0v0s0,.05.07.07.08,0,.08.06,0,.07-.07.16l-.17.24v0l0,0v0l-.19-.36,0-.07s0,0,.05-.05.06,0,.06-.08h0a0,0,0,0,0,0,0,.08.08,0,0,0-.05,0h-.53a.05.05,0,0,0-.06.06.07.07,0,0,0,0,.07c.05,0,.13.06.26.28l.21.37.06.12,0,0,0,0-.33.47a.42.42,0,0,1-.14.11s-.07,0-.07.07v0l0,0H30c.05,0,.08,0,.08-.05s-.05-.06-.1-.07-.08,0-.08-.07a.32.32,0,0,1,.06-.15l.19-.29,0,0,0,0,.2.33.05.12s0,0-.05.05a.08.08,0,0,0-.06.08.1.1,0,0,0,0,0h.49c.07,0,.12,0,.12-.06s0,0,0-.06a.45.45,0,0,1-.18-.19l-.3-.51,0,0,0-.07.05-.08v0l.24-.35a.42.42,0,0,1,.22-.19s.06,0,.06-.06A.05.05,0,0,0,30.9,18Z" transform="translate(-0.72 -1.56)"/><path class="cls-1" d="M31.9,18h-.28s0,0-.05,0a.14.14,0,0,0,0,0s0,.05.08.07.07,0,.07.06,0,.07-.07.16l-.16.24,0,0v0l0,0-.19-.36,0-.07s0,0,.05-.05.06,0,.06-.08h0v0s0,0,0,0h-.52s-.07,0-.07.06a.08.08,0,0,0,0,.07c.05,0,.14.06.26.28l.21.37a.66.66,0,0,1,.06.12l0,0,0,0-.33.47a.4.4,0,0,1-.13.11s-.07,0-.07.07v0s0,0,0,0h.49s.07,0,.07-.05,0-.06-.09-.07-.09,0-.09-.07h0a.41.41,0,0,1,.07-.15l.19-.29,0,0a0,0,0,0,0,0,0l.2.33.05.12s0,0-.05.05a.09.09,0,0,0-.06.08.1.1,0,0,0,0,0H32c.07,0,.13,0,.13-.06s0,0,0-.06a.45.45,0,0,1-.19-.19l-.3-.51,0,0,0-.07,0-.08,0,0,.24-.35a.42.42,0,0,1,.22-.19s.06,0,.06-.06,0-.06-.07-.06Z" transform="translate(-0.72 -1.56)"/><path class="cls-1" d="M33.05,18l0,0c0,.05,0,.06.09.07s.14,0,.14.15v1.11c0,.12,0,.15-.09.17s-.06,0-.06.07a0,0,0,0,0,0,.05h.52s.09,0,.09-.06-.05-.05-.08-.05-.15,0-.15-.2v-1.1c0-.12.05-.13.09-.15s.06,0,.06-.06,0,0,0,0h-.55Z" transform="translate(-0.72 -1.56)"/><path class="cls-1" d="M33.56,18a.14.14,0,0,0,0,0c0,.05.05.06.09.07s.14,0,.14.15v1.11c0,.12-.05.15-.09.17a.08.08,0,0,0,0,.07s0,.05,0,.05h.52s.09,0,.09-.06,0-.05-.08-.05-.14,0-.14-.2v-1.1c0-.12,0-.13.08-.15a.07.07,0,0,0,.07-.06.07.07,0,0,0,0,0h-.54Z" transform="translate(-0.72 -1.56)"/><path class="cls-1" d="M33.06,18h-.25l-.08,0a.06.06,0,0,0,0,0c0,.05,0,.06.08.07a.12.12,0,0,1,.12.14.73.73,0,0,1-.06.27s-.28.71-.28.72h0l-.26-.75a1.15,1.15,0,0,1-.08-.31s0-.05.06-.06.06,0,.06-.07,0,0,0,0a.12.12,0,0,0-.07,0h-.43l-.09,0s0,0,0,0a.07.07,0,0,0,0,.06c.08,0,.1,0,.13.12l.49,1.34c0,.11.07.14.1.14s.06,0,.08-.09h0l.53-1.39a.25.25,0,0,1,.1-.12.07.07,0,0,0,0-.06s0,0,0,0a.12.12,0,0,0-.07,0Z" transform="translate(-0.72 -1.56)"/><path class="cls-1" d="M1.63,11.11a.09.09,0,0,0,0,.07v.31l-.09.67a.06.06,0,0,0,0,.06l.05,0c.1,0,.13-.08.16-.17a.36.36,0,0,1,.45-.3L4,12a1.18,1.18,0,0,1,1.2,1.44,1.22,1.22,0,0,1-1.44,1.2l-2-.22c-.23,0-.25-.15-.27-.27s0-.14-.1-.15h0a.32.32,0,0,0-.06.17s0,.56,0,.56l-.07.44s0,.15.06.16.13-.09.16-.18.09-.26.27-.24l1.9.2c.74.08,1.74,0,1.91-1.62a1.65,1.65,0,0,0-.28-1.25A1.73,1.73,0,0,0,4,11.68L2.2,11.49c-.32,0-.36-.17-.4-.28s0-.11-.11-.12A.1.1,0,0,0,1.63,11.11Z" transform="translate(-0.72 -1.56)"/><path class="cls-1" d="M3.4,6.24l-.09.23-.13.31L3,7.24a.07.07,0,0,0,0,.11c.07,0,.12,0,.19-.11a.49.49,0,0,1,.72-.17L6.06,8l0,0L6,8.08,2.16,9.32h0A.25.25,0,0,0,2,9.41l-.08.25-.14.23a.15.15,0,0,0,0,.1l0,0c.07,0,.12,0,.18-.1S2.28,9.5,3,9.83l1.91.86c.47.21.44.42.41.58s0,.15.06.18.08,0,.12,0l0-.1.17-.4.17-.34L6,10.39v-.07l-.06-.05c-.06,0-.11,0-.16.11a.32.32,0,0,1-.47.16l-2.11-1-.09-.05s0,0,.11,0L6.74,8.36c.15,0,.21-.08.25-.14v0S6.91,8.1,6.77,8l-3-1.34a.32.32,0,0,1-.22-.34c0-.07,0-.13-.06-.16A.07.07,0,0,0,3.4,6.24Z" transform="translate(-0.72 -1.56)"/><path class="cls-1" d="M5.09,4.12l-.34.41L4.31,5s0,.08,0,.12.1,0,.17,0A.33.33,0,0,1,5,5L7.08,7a.44.44,0,0,1,.18.31.43.43,0,0,1-.07.2.28.28,0,0,0,0,.12.09.09,0,0,0,0,.06c.06.06.11,0,.18,0l.06-.08.29-.34L8,6.92l.15-.16c.06-.07.09-.11,0-.16S8,6.6,8,6.66s-.27.18-.43,0l-2.24-2a.29.29,0,0,1-.06-.42c0-.07.07-.13,0-.17S5.14,4.06,5.09,4.12Z" transform="translate(-0.72 -1.56)"/><path class="cls-1" d="M9.83,1.81l-.09.05L9.43,2l-.36.12c-.05,0-.1,0-.07.13s.11,0,.19,0,.21,0,.26.09a.71.71,0,0,1,.07.38L9.45,5.27v.05s0,.1,0,.11-.11-.06-.24-.2l-.11-.11L7.2,3.47a.57.57,0,0,1-.12-.18.11.11,0,0,1,0-.07.23.23,0,0,1,.08-.16A.19.19,0,0,0,7.19,3a0,0,0,0,0,0,0s0,0,0,0a.12.12,0,0,0-.09,0L6.91,3l-.26.12-.5.18a.09.09,0,0,0-.06.13c0,.06.09.06.16.05a.42.42,0,0,1,.39.12L9.26,6,9.33,6c.09.11.21.23.29.19s.07-.14.07-.27V5.84l.13-3.51c0-.25.07-.32.12-.36s.06-.05,0-.11a.05.05,0,0,0,0-.05A.16.16,0,0,0,9.83,1.81ZM7.18,2.93Z" transform="translate(-0.72 -1.56)"/><path class="cls-1" d="M13.05,1.65l-.33,0h-.3L11,1.69c-.12,0-.18,0-.21,0a.05.05,0,0,0,0,.05c0,.08.1.1.16.11h0c.29,0,.3.3.3.55l.07,2.48c0,.27,0,.41-.14.47l-.14.07c-.08,0-.11,0-.12.1a.08.08,0,0,0,0,.06s.09,0,.09,0l.42,0,.28,0H13.2a.56.56,0,0,0,.54-.21A.91.91,0,0,0,14,4.81a.27.27,0,0,0,0-.08s0,0,0,0l-.09,0a2.24,2.24,0,0,1-1.58.47c-.2,0-.31,0-.36-.06s-.06-.15-.06-.29V4.81l0-.95v0c0-.05,0-.09,0-.11a.09.09,0,0,1,.06,0l.95,0c.28,0,.32.17.35.31s0,.18.12.17a.08.08,0,0,0,.09-.09l0-.45V3.05l0-.11,0,0c-.06,0-.07.06-.09.13s-.09.32-.47.33L12,3.4h-.18s0-.06,0-.13l0-1c0-.14,0-.22,0-.26s.16-.05.39-.06h.18c.26,0,.82,0,.95.13a.59.59,0,0,1,.05.2c0,.1,0,.21.11.2l.05,0c.06-.06.08-.28.07-.68a.23.23,0,0,0,0-.13h-.05Z" transform="translate(-0.72 -1.56)"/><path class="cls-1" d="M18.34,5.39a.94.94,0,0,1-.64-.46s-.94-1.33-1-1.37a1.09,1.09,0,0,0,.7-1h0a.93.93,0,0,0-.27-.67,1.41,1.41,0,0,0-1.1-.29h-.48l-.51,0h-.36c-.08,0-.14,0-.14.1s.09.1.18.11.32.06.32.37l0,2.82a.35.35,0,0,1-.28.37c-.07,0-.14.06-.14.12s0,.09.09.09l.65,0h.66l.1,0s0-.05,0-.05-.1-.11-.2-.13-.35-.08-.36-.36V3.84a.28.28,0,0,1,0-.08s.05,0,.11,0h.1c.43,0,.43,0,.52.15l.08.12.65,1a1.16,1.16,0,0,0,1,.59c.38,0,.39-.06.39-.09h0C18.47,5.41,18.42,5.4,18.34,5.39ZM16.2,3.45h-.15c-.17,0-.37,0-.42,0l0-1.31h0a.28.28,0,0,1,0-.15.39.39,0,0,1,.21,0h0a1.19,1.19,0,0,1,.84.24.74.74,0,0,1,.2.55.69.69,0,0,1-.18.55A.74.74,0,0,1,16.2,3.45Z" transform="translate(-0.72 -1.56)"/><polygon class="cls-1" points="14.89 0.55 14.89 0.55 14.89 0.55 14.89 0.55"/><path class="cls-1" d="M19.28,1.82a1,1,0,0,0-.39.82c0,.79.68.95,1.24,1.15s.92.41.92.8c0,.54-.47.78-.95.78A1.17,1.17,0,0,1,19,4.6v0c0-.09,0-.15-.11-.15l-.07,0a.3.3,0,0,0,0,.1.25.25,0,0,0,0,.08l.13.71c0,.13.57.33,1,.33,1.15,0,1.57-.66,1.57-1.21,0-.9-.64-1-1.23-1.24s-.93-.41-.93-.73c0-.49.48-.64.81-.64a1.08,1.08,0,0,1,1,.66c0,.06.06.18.13.18a.1.1,0,0,0,.06,0s0-.08,0-.08l-.08-.76c0-.08-.06-.11-.08-.1l-.08,0,0,0-.07,0a1.74,1.74,0,0,0-.83-.17A1.36,1.36,0,0,0,19.28,1.82ZM18.77,4.6Z" transform="translate(-0.72 -1.56)"/><path class="cls-1" d="M22.39,1.71s0,.06,0,.06h0c0,.06.07.08.15.11s.29.09.29.31v0L22.64,5c0,.33-.2.37-.33.39s-.15,0-.15.1h0c0,.07,0,.1.13.1h.56l.4,0,.22,0a.2.2,0,0,0,.12,0,.17.17,0,0,0,0,0c0-.09-.09-.12-.19-.15s-.31-.09-.29-.3l.17-2.94a.29.29,0,0,1,.29-.3c.08,0,.15,0,.15-.09s0-.08-.13-.09h-.53l-.63-.06A.1.1,0,0,0,22.39,1.71Z" transform="translate(-0.72 -1.56)"/><path class="cls-1" d="M24.54,2V2l-.21.49a.12.12,0,0,0,0,.08.08.08,0,0,0,0,0,.12.12,0,0,0,.14-.08l0,0,0,0c.16-.23.2-.29.51-.2L26,2.5s0,0,0,.21v0h0l-.78,2.75c-.05.18-.22.19-.35.19s-.18,0-.2.08a.2.2,0,0,0,0,.08l.06,0h0l.72.18.44.14s0,0,.06,0,0,0,0,0S25.89,6,25.82,6s-.27-.13-.19-.39l.76-2.7,0-.07a.41.41,0,0,1,0-.15s.07,0,.14,0l.83.22c.33.09.31.23.29.35s0,.16.07.18a.11.11,0,0,0,.07,0s0-.07.05-.11L28,2.88c0-.14,0-.19-.13-.22l-.16,0-1.46-.37-1-.28-.58-.17C24.6,1.78,24.56,1.9,24.54,2Z" transform="translate(-0.72 -1.56)"/><path class="cls-1" d="M28.61,3.18s0,.09,0,.15a.41.41,0,0,1,.11.33l-.16,1.77v0a.46.46,0,0,1-.08.25l-.87,1c-.15.17-.28.1-.4,0s-.14-.07-.19,0a.13.13,0,0,0,0,.06.14.14,0,0,0,0,.08l.07,0,.33.25.32.29.14.13s.11.09.16,0,0-.12,0-.2a.33.33,0,0,1,0-.47l.88-1s.07,0,.14-.06l.12,0,1.39-.41.09,0a.86.86,0,0,1,.39-.06h0s.12,0,.16,0a.2.2,0,0,0,0-.07.07.07,0,0,0,0,0l-.38-.3-.3-.28s-.11-.09-.18,0,0,.12.06.19.16.2.07.3a.46.46,0,0,1-.25.14h0l-1.05.33a.27.27,0,0,1-.13,0s0-.06,0-.13l.1-1.3A.55.55,0,0,1,29.21,4c.05-.06.14,0,.21,0s.13,0,.17,0,0,0,0,0a.14.14,0,0,0-.06-.1l-.08-.06-.24-.17-.34-.32-.13-.11A.1.1,0,0,0,28.61,3.18Z" transform="translate(-0.72 -1.56)"/><path class="cls-1" d="M33.54,9.71a2.2,2.2,0,0,0-.75-1.51,2,2,0,0,0-1.47-.46A2,2,0,0,0,29.41,10a2.24,2.24,0,0,0,.74,1.58,2.08,2.08,0,0,0,1.54.45A2,2,0,0,0,33.54,9.71Zm-2.13,1.78a1.69,1.69,0,0,1-1.25-.35,1.39,1.39,0,0,1-.48-1A1.84,1.84,0,0,1,31.5,8.28a1.7,1.7,0,0,1,1.23.35,1.42,1.42,0,0,1,.48,1A1.85,1.85,0,0,1,31.41,11.49Z" transform="translate(-0.72 -1.56)"/><path class="cls-1" d="M33.45,12.46c0,.29-.28.29-.53.29H30.37c-.4,0-.46-.17-.5-.29s-.05-.13-.11-.13a.08.08,0,0,0-.08.08v.16l0,.44,0,.62v0s0,.15.1.15.08-.07.1-.15.08-.37.41-.37h1.16a.11.11,0,0,1,.1,0,.14.14,0,0,1,0,.07v.8c0,.28-.18.31-.32.34s-.17,0-.17.12a.08.08,0,0,0,.09.09h1c.06,0,.13,0,.13-.09s-.06-.08-.12-.09-.28-.1-.28-.49v-.57c0-.1,0-.16,0-.18h1.23c.1,0,.16,0,.19,0s0,.14,0,.36v.18c0,.26,0,.74-.15.86a.42.42,0,0,1-.2,0c-.1,0-.2,0-.2.11s.08.11.7.11c0,0,.15,0,.15-.08l0-.49v-.54l0-1.41c0-.17,0-.2-.12-.2S33.48,12.37,33.45,12.46Z" transform="translate(-0.72 -1.56)"/><path class="cls-1" d="M5.54,23.42l-.09-.62,0-.3,0-.31V22c0-.06,0-.13,0-.15a.08.08,0,0,0-.07,0s-.07.08-.09.17-.07.37-.34.4l-2.78.32c-.4,0-.46-.11-.49-.18l0,0c0-.09-.07-.16-.14-.15a0,0,0,0,0,0,0s0,.16,0,.16l.11.8.06.75a1.47,1.47,0,0,0,.5,1,1.26,1.26,0,0,0,.88.26,1,1,0,0,0,.91-.91s0-.1,0-.11l0,0a.91.91,0,0,0,.83.41C4.93,24.8,5.67,24.62,5.54,23.42ZM2.63,24.87a.79.79,0,0,1-.56-.15A1,1,0,0,1,1.75,24c-.08-.73,0-.74.36-.78l1.27-.15h0s.07.15.09.36C3.65,24.75,3,24.83,2.63,24.87ZM5.05,24a.84.84,0,0,1-.58.31c-.22,0-.58.06-.69-.86,0-.24,0-.37,0-.4s0,0,.09,0h.06l.91-.1H4.9c.14,0,.23,0,.28,0s.06.11.08.25A1.09,1.09,0,0,1,5.05,24Z" transform="translate(-0.72 -1.56)"/><path class="cls-1" d="M13,31.48a2,2,0,0,0,2.15,2,2.27,2.27,0,0,0,1.28-.33,2.78,2.78,0,0,1,.49-.23h0v-1a.33.33,0,0,1,.19-.33c.05,0,.1,0,.1-.11l0-.05a.15.15,0,0,0-.13,0h-1s-.12,0-.13,0a.28.28,0,0,0,0,.06c0,.08.09.1.19.11s.24.05.24.18v.82c0,.43-.56.63-1.12.63a1.67,1.67,0,0,1-1.65-1.84,1.52,1.52,0,0,1,1.51-1.69,1.83,1.83,0,0,1,1.61.85c.07.11.12.17.17.17s.08-.09.08-.12l-.05-.73v0s0-.08,0-.09a.1.1,0,0,0-.06,0,.11.11,0,0,0-.09.06s0,0-.06,0a.4.4,0,0,1-.17-.08,2.39,2.39,0,0,0-1.27-.3A2.12,2.12,0,0,0,13,31.48Z" transform="translate(-0.72 -1.56)"/><path class="cls-1" d="M22.73,29.4l-.69.1-.54.05h-.09a.11.11,0,0,0-.09.12c0,.09.09.09.17.08s.31,0,.36.39l.3,2.65c.05.4-.13.47-.25.52s-.13.06-.12.12l0,.06.09,0,.26,0,.4-.06.4,0,.22,0a.34.34,0,0,0,.17,0,.21.21,0,0,0,0-.06c0-.08-.09-.08-.18-.09s-.44,0-.5-.54l-.32-2.79c0-.09,0-.1.18-.14h.08a1,1,0,0,1,.78.19,1,1,0,0,1,.43.63.76.76,0,0,1-.74.8l-.29,0h-.05a.15.15,0,0,0-.08,0,.14.14,0,0,0,0,.06c0,.13.44.13.47.13,1.27-.14,1.23-1,1.21-1.23C24.25,29.63,23.67,29.29,22.73,29.4Z" transform="translate(-0.72 -1.56)"/><path class="cls-1" d="M6.45,26.37,6.22,26,6,25.51l-.11-.26,0-.08c0-.07-.09-.1-.14-.08s0,.12,0,.21a.32.32,0,0,1-.18.46L3,27.06A.34.34,0,0,1,2.52,27c-.07-.06-.12-.1-.18-.07a.11.11,0,0,0,0,.05s0,.06,0,.06l.32.57.26.54,0,.05s0,.08.06.09H3c.08,0,.05-.14,0-.24s-.08-.35.16-.48l1-.54h0l.07,0a.12.12,0,0,1,.08.09l0,.08c.2.38.2.38.1.54l-.08.13-.56,1a1.15,1.15,0,0,0-.11,1.12c.1.19.17.3.23.31h0a0,0,0,0,0,0,0,.06.06,0,0,0,0-.06.29.29,0,0,0,0-.09.76.76,0,0,1,0-.25,1.08,1.08,0,0,1,.16-.54L5,27.84A1.11,1.11,0,0,0,6.2,28a.9.9,0,0,0,.48-.54A1.48,1.48,0,0,0,6.45,26.37Zm-.2.83a.75.75,0,0,1-.4.43.66.66,0,0,1-1-.32l-.06-.12a1.27,1.27,0,0,1-.17-.38h0l1.16-.62a.22.22,0,0,1,.15,0s.07.07.12.17l0,0A1.17,1.17,0,0,1,6.25,27.2Z" transform="translate(-0.72 -1.56)"/><path class="cls-1" d="M7.43,27.84l0,0s0,.08.08.13a.41.41,0,0,1,.13.26.28.28,0,0,1-.06.18L5.89,30.73c-.2.27-.37.21-.49.16s-.14-.06-.18,0,0,.11,0,.17l.08.05.38.26.32.25.17.14a.28.28,0,0,0,.12,0l0,0c0-.07,0-.15-.08-.23s-.21-.24-.09-.41L8,28.75a.3.3,0,0,1,.41-.1c.07,0,.14.06.17,0s0-.09-.06-.14L8,28.21l-.5-.39S7.46,27.79,7.43,27.84Z" transform="translate(-0.72 -1.56)"/><path class="cls-1" d="M29.79,22.11v.15l-.13,1.51-.11,1-.06.59c0,.11.12.14.19.15h0l.52.12a.09.09,0,0,0,.08,0,.17.17,0,0,0,0-.05c0-.07-.06-.1-.1-.12h0l0,0c-.26-.12-.32-.14-.29-.46L30,24s0,0,.2,0h0l2.85.31c.19,0,.23.18.26.31s0,.17.11.18.05,0,.07,0a.11.11,0,0,0,0-.07v0l.05-.75.07-.45a.1.1,0,0,0,0-.06s-.06,0-.06,0-.11.07-.14.16a.29.29,0,0,1-.36.25l-2.8-.3h-.07l-.16,0a.61.61,0,0,1,0-.14l.09-.86c0-.34.18-.34.3-.34s.15,0,.16-.1a.12.12,0,0,0,0-.07s-.08,0-.12,0l-.44,0C29.85,21.93,29.81,22,29.79,22.11Zm.4,1.92Z" transform="translate(-0.72 -1.56)"/><path class="cls-1" d="M28.71,29.1a2,2,0,0,0-2.9-.42,2.17,2.17,0,0,0-.91,1.41,2.07,2.07,0,0,0,3.23,2,2.23,2.23,0,0,0,1-1.44A2.05,2.05,0,0,0,28.71,29.1Zm.05,1.75a1.38,1.38,0,0,1-.57.9,1.84,1.84,0,0,1-2.57-.59,1.8,1.8,0,0,1-.34-1,1,1,0,0,1,0-.24,1.38,1.38,0,0,1,.58-.89,1.84,1.84,0,0,1,2.55.57A1.72,1.72,0,0,1,28.76,30.85Z" transform="translate(-0.72 -1.56)"/><path class="cls-1" d="M20.47,29.47l-.5,0h-.62l-1.42,0c-.12,0-.18,0-.21,0l0,.06c0,.07.11.09.17.1h0c.29,0,.3.3.3.55l.07,2.48c0,.27,0,.41-.14.48L18,33.3c-.07,0-.1.05-.11.11s.08.08.11.08l.42,0h1.73a.58.58,0,0,0,.54-.22.89.89,0,0,0,.28-.57.36.36,0,0,0,0-.07,0,0,0,0,0-.05,0l-.08,0a2.22,2.22,0,0,1-1.58.48c-.2,0-.31,0-.36-.07s-.06-.15-.06-.29v-.08l0-.95v0s0-.09,0-.11l.06,0,.95,0c.28,0,.32.17.35.31s0,.18.12.18.09,0,.09-.1l0-.45v-.57s0-.08,0-.11-.05,0-.05,0-.07.06-.09.13-.09.33-.47.34H19c-.11,0-.17,0-.18,0s0-.06,0-.12l0-1c0-.15,0-.23,0-.27s.16-.05.39-.06h.18c.26,0,.81,0,.95.13a.42.42,0,0,1,0,.2c0,.1,0,.21.12.21l.05,0a1.39,1.39,0,0,0,.07-.69S20.55,29.47,20.47,29.47Z" transform="translate(-0.72 -1.56)"/><path class="cls-1" d="M12.29,30.2a2.29,2.29,0,0,0-1.4-1L10.18,29l-.52-.13-.52-.13a.09.09,0,0,0-.12.05c0,.06.05.1.12.13a.38.38,0,0,1,.21.51L8.59,32.1c-.09.33-.27.34-.4.34s-.13,0-.15.06v.06a.11.11,0,0,0,.06,0l.65.14.48.14.4.11c1.5.41,2.46-.1,2.85-1.52A1.65,1.65,0,0,0,12.29,30.2Zm-.48,1.46A1.4,1.4,0,0,1,9.9,32.75a1.59,1.59,0,0,1-.81-.46A1,1,0,0,1,9.16,32V31.9l.69-2.4c.06-.24.07-.28.62-.13a1.91,1.91,0,0,1,1.22.87A1.77,1.77,0,0,1,11.81,31.66Z" transform="translate(-0.72 -1.56)"/><path class="cls-1" d="M33.11,26.88l0,0c-.05,0-.09,0-.14.06a.94.94,0,0,1-.75.28l-1.69,0a.91.91,0,0,0,0-.23,1,1,0,0,0-.46-.88.88.88,0,0,0-.72-.15,1.44,1.44,0,0,0-.86.74l-.24.4-.28.44-.16.23-.06.07c0,.07,0,.14,0,.16s.14,0,.2-.08a.32.32,0,0,1,.49-.06l2.4,1.55a.35.35,0,0,1,.15.43c0,.08,0,.15,0,.19a.07.07,0,0,0,.06,0s0,0,.05,0l.34-.57.34-.5,0-.05a.25.25,0,0,0,0-.09s0,0,0,0-.15,0-.22.09-.27.25-.5.1l-1-.64,0,0-.06,0a.11.11,0,0,1,0-.11l.05-.08c.23-.37.23-.37.42-.36h1.32a1.19,1.19,0,0,0,1-.47c.08-.12.18-.29.16-.35Zm-3.06.68,0,0-.08.12a1.07,1.07,0,0,1-.26.34l-1.06-.67a.21.21,0,0,1-.1-.12v0a.46.46,0,0,1,.1-.22,1.09,1.09,0,0,1,.66-.53.85.85,0,0,1,.62.14.69.69,0,0,1,.32.4A.71.71,0,0,1,30.05,27.56Z" transform="translate(-0.72 -1.56)"/><path class="cls-1" d="M26,12.58a1,1,0,0,0-.38-.25.9.9,0,0,0,.35-.64,1.14,1.14,0,0,0-.53-1,1,1,0,0,0-.47-.15,1,1,0,0,0-.8-1.38,1,1,0,0,0-.32-.7,1.28,1.28,0,0,0-1.91,0,1,1,0,0,0-.32.7,1,1,0,0,0-.67.42,1,1,0,0,0-.13,1,1,1,0,0,0-.47.15,1.11,1.11,0,0,0-.52,1,.93.93,0,0,0,.34.64,1,1,0,0,0-.37.25,1.17,1.17,0,0,0-.29,1.13,1.07,1.07,0,0,0,.89.7h2.16v.48a1.07,1.07,0,0,1-.69,1.16l-.85.17c-.32.11-.3.2-.2.2H25c.09,0,.11-.09-.21-.2l-.84-.17a1.08,1.08,0,0,1-.7-1.16c0-.19,0-.43,0-.48h2.17a1.07,1.07,0,0,0,.88-.7A1.17,1.17,0,0,0,26,12.58Zm-3.43,1.51H20.43a.74.74,0,0,1-.62-.48.78.78,0,0,1,0-.22A.86.86,0,0,1,20,12.8a.74.74,0,0,1,.74-.19h0l1.82.65Zm0-1.17-2-.71a.63.63,0,0,1-.43-.55v0a.8.8,0,0,1,.37-.64.62.62,0,0,1,.6-.06v0l1.48.9Zm0-1.45-1.29-.79h0l0,0a.55.55,0,0,1-.22-.45.76.76,0,0,1,.14-.43.6.6,0,0,1,.88-.16,7.89,7.89,0,0,1,.54.59h0Zm0-1.74c-.13-.14-.28-.3-.37-.38a1,1,0,0,0-.34-.16.78.78,0,0,1,.23-.5,1.21,1.21,0,0,1,.5-.3Zm.48-1.34a1.25,1.25,0,0,1,.49.3.74.74,0,0,1,.23.5,1.15,1.15,0,0,0-.34.16,4.65,4.65,0,0,0-.36.38Zm0,1.81h0a6.27,6.27,0,0,1,.55-.59.6.6,0,0,1,.88.16.76.76,0,0,1,.14.43.56.56,0,0,1-.23.45l0,0h0l-1.28.79Zm0,1.64,1.48-.9v0a.61.61,0,0,1,.6.06.79.79,0,0,1,.38.64v0a.66.66,0,0,1-.44.55l-2,.71ZM26,13.61a.73.73,0,0,1-.62.48H23.21v-.83L25,12.61h0a.77.77,0,0,1,.75.19.91.91,0,0,1,.24.59A.54.54,0,0,1,26,13.61Z" transform="translate(-0.72 -1.56)"/><path class="cls-1" d="M22.76,6.42H12.4a6,6,0,0,0-6.09,6.09v10a6,6,0,0,0,6.09,6.08H22.76a6,6,0,0,0,6.09-6.08v-10A6,6,0,0,0,22.76,6.42Zm-5.7,19.09a1,1,0,0,1-.61.19,1.38,1.38,0,0,1-.9-.47l-.1-.12-.12.11a1.62,1.62,0,0,1-.93.46,1.36,1.36,0,0,1-.92-.45l-.1-.13-.12.12a1.49,1.49,0,0,1-1,.45,1.38,1.38,0,0,1-.89-.46l-.12-.15-.11.15a1.19,1.19,0,0,1-.92.43,1.39,1.39,0,0,1-.94-.41l-.1-.11-.12.1a2.08,2.08,0,0,1-.66.38,4.55,4.55,0,0,1-.67-1.25,2.8,2.8,0,0,0,.52,0,1.88,1.88,0,0,0,.91-.4,1.62,1.62,0,0,0,1.05.41,1.45,1.45,0,0,0,1-.42,1.47,1.47,0,0,0,1,.45,1.79,1.79,0,0,0,1.1-.44,1.94,1.94,0,0,0,1.06.42,2,2,0,0,0,1-.42,1.84,1.84,0,0,0,1.06.44,1.35,1.35,0,0,0,.56-.11ZM7.45,12.4a4.8,4.8,0,0,1,4.84-4.91h3.09a1.62,1.62,0,0,1,1.67,1.3V15.5A1.58,1.58,0,0,1,15.66,17H8.81a1.56,1.56,0,0,1-1.36-1.4Zm0,7A1.56,1.56,0,0,1,8.82,18h6.84a1.59,1.59,0,0,1,1.4,1.46V24a.83.83,0,0,1-.55.15,1.72,1.72,0,0,1-1-.44l-.1-.1-.1.09a1.76,1.76,0,0,1-.91.44,1.91,1.91,0,0,1-1-.44l-.11-.09-.1.1a1.5,1.5,0,0,1-1,.44,1.34,1.34,0,0,1-.89-.46l-.12-.14-.11.15a1.16,1.16,0,0,1-.92.42,1.4,1.4,0,0,1-.94-.4l-.1-.12-.12.1a1.59,1.59,0,0,1-.83.41A2.17,2.17,0,0,1,7.64,24a5.38,5.38,0,0,1-.18-1.43Zm7.93,8.07H12.3a5,5,0,0,1-3.68-1.65,2.31,2.31,0,0,0,.56-.32,1.67,1.67,0,0,0,1.05.42,1.45,1.45,0,0,0,1-.43,1.47,1.47,0,0,0,1,.45,1.7,1.7,0,0,0,1.08-.43,1.56,1.56,0,0,0,1,.45,1.76,1.76,0,0,0,1-.45,1.59,1.59,0,0,0,1,.46,1.33,1.33,0,0,0,.62-.13v.33A1.62,1.62,0,0,1,15.39,27.5Zm12.35-4.91A4.8,4.8,0,0,1,22.9,27.5H19.81a1.62,1.62,0,0,1-1.67-1.3V19.49A1.59,1.59,0,0,1,19.53,18h6.85a1.57,1.57,0,0,1,1.36,1.4Zm0-7A1.57,1.57,0,0,1,26.38,17H19.53a1.59,1.59,0,0,1-1.39-1.46V8.8a1.63,1.63,0,0,1,1.67-1.31H22.9a4.81,4.81,0,0,1,4.84,4.91Z" transform="translate(-0.72 -1.56)"/><path class="cls-1" d="M12,8.32a.84.84,0,0,1,0,.26,1.8,1.8,0,0,1-.47,1.1A2.28,2.28,0,0,0,11,11.05a1.09,1.09,0,0,0,0,.18,1.9,1.9,0,0,0,.83,1.25c.5.4.9.84.9,1.1v0a.87.87,0,0,1-.18.26,1.91,1.91,0,0,0-.92-1.17,2.62,2.62,0,0,1-.91-1.53l-.05-.27-.21.18a1.56,1.56,0,0,0-.24,2,3.07,3.07,0,0,0,.57.63c.39.36.62.59.5.88s-.21.28-.24.29H9.31l.17.24a3.35,3.35,0,0,0,2.69,1.24,3.67,3.67,0,0,0,2.95-1.22l.21-.26H13.2a.32.32,0,0,1,0-.06s.11-.16.19-.26a1.43,1.43,0,0,0,.49-1A1.92,1.92,0,0,0,13.1,12L13,11.92c-.37-.34-.79-.73-.79-1a2.34,2.34,0,0,1,.43-1.13A1.65,1.65,0,0,0,13,9a.88.88,0,0,0-.8-.93l-.27,0Zm.47,6.17a2.39,2.39,0,0,0,.55-.7h0a.57.57,0,0,0,0-.13c0-.49-.61-1.1-1-1.41a1.58,1.58,0,0,1-.7-1,.66.66,0,0,1,0-.14,1.94,1.94,0,0,1,.5-1.17,2.19,2.19,0,0,0,.58-1.28V8.51a.58.58,0,0,1,.26.54,1.94,1.94,0,0,1-.3.6,2.38,2.38,0,0,0-.46,1.24c0,.44.45.86.89,1.27l.08.07c.63.63.66.9.66,1.38a1.12,1.12,0,0,1-.4.78c-.14.16-.28.3-.28.49v0a.36.36,0,0,0,.34.34h1.41a3.45,3.45,0,0,1-2.43.84,3.33,3.33,0,0,1-2.2-.84h1.09c.18,0,.38-.19.52-.48a1.15,1.15,0,0,0,.09-.34c0-.38-.3-.63-.6-.91a3.23,3.23,0,0,1-.62-.67.91.91,0,0,1-.19-.62,1.14,1.14,0,0,1,.23-.68,2.67,2.67,0,0,0,1,1.43c.7.49.77.86.77,1.07s0,.2,0,.21l-.09.45Z" transform="translate(-0.72 -1.56)"/><path class="cls-1" d="M12.88,11.42A6.71,6.71,0,0,1,14,12.59c.26.46.11.48.29.76a2.55,2.55,0,0,0,.65-1.3c0-.5-.52-1-.9-1.28L14,10.7a3,3,0,0,1-.76-1.33C12.6,10.18,12.34,10.82,12.88,11.42Zm0-.68a1.46,1.46,0,0,1,.19-.63,2.78,2.78,0,0,0,.62.84l.08.07c.32.27.78.7.78,1a1,1,0,0,1-.2.61,3.84,3.84,0,0,0-1.12-1.32A1,1,0,0,1,12.91,10.74Z" transform="translate(-0.72 -1.56)"/><path class="cls-1" d="M15.86,19.34a6.5,6.5,0,0,1-.78,0c-.45,0-2,0-2.52.88l0,.06A3.52,3.52,0,0,0,12,19.8a2.33,2.33,0,0,0-2.39-.47,4.53,4.53,0,0,1-.89.14l-.38,0,.29.25a1.75,1.75,0,0,0,1.29.33,1.07,1.07,0,0,1,1.06.4l0,0v0a3.56,3.56,0,0,0,.39.48A1.46,1.46,0,0,1,11,21a.7.7,0,0,0-.35-.07l-.1,0,0,.1a1.1,1.1,0,0,0,0,.83l.07.11.12,0a1.15,1.15,0,0,1,.83.06,1.58,1.58,0,0,0,1.54,0,1.22,1.22,0,0,1,.94-.17l.27.07-.08-.27a.29.29,0,0,0-.19-.23,1,1,0,0,0-.51-.47h-.05a1.52,1.52,0,0,0,.29-.32A2.75,2.75,0,0,1,15,20.11c.77-.14,1-.5,1-.54l.11-.25Zm-2.09,2.12a1.55,1.55,0,0,0-.79.25,1.29,1.29,0,0,1-1.24,0,1.62,1.62,0,0,0-.91-.12.37.37,0,0,1,0-.11,1,1,0,0,1,0-.22l.05,0a1.78,1.78,0,0,0,1,0l.27-.11L11.89,21a2.76,2.76,0,0,1-.59-.65l0,0,0-.06a1.38,1.38,0,0,0-1.32-.5,1.78,1.78,0,0,1-.59,0l.38-.09a2.14,2.14,0,0,1,2.09.4h0a5.68,5.68,0,0,1,.5.46,2.23,2.23,0,0,0,.26.27.81.81,0,0,0,.17.17.4.4,0,0,0,.21.1,1.39,1.39,0,0,0,.51.16A.75.75,0,0,1,13.77,21.46ZM15,19.8a2.66,2.66,0,0,0-1.4.58.76.76,0,0,1-.45.37h-.07a1.3,1.3,0,0,1-.23-.18s0,0,0-.05,0-.06,0-.11a2.77,2.77,0,0,1,2.24-.74h.31A3.05,3.05,0,0,1,15,19.8Z" transform="translate(-0.72 -1.56)"/><path class="cls-1" d="M26.71,20.46a.11.11,0,0,0,0-.07v-.71a0,0,0,0,0,0,0H25.49a0,0,0,0,1,0,0v-.31s0,0,0,0h-.91s0,0,0,0V19a0,0,0,0,0,0,0H21.18s0,0,0,0v.26s0,0,0,0H20.2a0,0,0,0,0,0,0v.31s0,0,0,0H18.91s0,0,0,0v.71a.19.19,0,0,0,0,.07l.07.07a.07.07,0,0,1,0,.12l-.07.07a.11.11,0,0,0,0,.06v.53a.11.11,0,0,0,0,.06l.07.07a.07.07,0,0,1,0,.06v.74a.07.07,0,0,1,0,.06l-.07.06a.19.19,0,0,0,0,.07V23a.21.21,0,0,0,0,.06l.07.06a.11.11,0,0,1,0,.06v1.25a.19.19,0,0,1,0,.07l-.07.06a.11.11,0,0,0,0,.06v.64a0,0,0,0,0,0,0h1.93s0,0,0,0v-.64a.11.11,0,0,0,0-.06l-.07-.08a.21.21,0,0,1,0-.07V23.22a.11.11,0,0,1,0-.06l.07-.06a.33.33,0,0,0,0-.06v-.61a.21.21,0,0,0,0-.07l0,0a.06.06,0,0,1,0-.06.56.56,0,0,1,.1-.21.61.61,0,0,1,.45-.15.71.71,0,0,1,.54.33s0,.05,0,.06l-.06.05a.19.19,0,0,0,0,.07V23a.21.21,0,0,0,0,.06l.07.06a.11.11,0,0,1,0,.06v1.25a.21.21,0,0,1,0,.07l-.07.06a.11.11,0,0,0,0,.06v.64a0,0,0,0,0,0,0h1.93s0,0,0,0v-.64a.07.07,0,0,0,0-.06l-.06-.06a.11.11,0,0,1,0-.07V23.22a.07.07,0,0,1,0-.06l.06-.06a.11.11,0,0,0,0-.06v-.61a.11.11,0,0,0,0-.07l-.06-.05a.06.06,0,0,1,0-.06.71.71,0,0,1,.55-.33.57.57,0,0,1,.44.15.5.5,0,0,1,.11.21s0,0,0,.06l0,0a.11.11,0,0,0,0,.07V23a.11.11,0,0,0,0,.06l.06.06a.07.07,0,0,1,0,.06v1.23a.19.19,0,0,1,0,.07l-.08.08a.11.11,0,0,0,0,.06v.64s0,0,0,0H26.7s0,0,0,0v-.64a.07.07,0,0,0,0-.06l-.06-.06a.11.11,0,0,1,0-.07V23.22a.07.07,0,0,1,0-.06l.06-.06a.11.11,0,0,0,0-.06v-.61a.11.11,0,0,0,0-.07l-.06-.06a.07.07,0,0,1,0-.06V21.5a.11.11,0,0,1,0-.06l.07-.07a.07.07,0,0,0,0-.06v-.53a.07.07,0,0,0,0-.06l-.07-.07a.1.1,0,0,1,0-.12Zm-6.18-.89a0,0,0,0,1,0,0h.86a0,0,0,0,0,0,0v-.25a0,0,0,0,1,0,0h2.72s0,0,0,0v.25l0,0h.87a0,0,0,0,1,0,0v.14l0,0H20.55a0,0,0,0,1,0,0ZM19.27,20a0,0,0,0,1,0,0h7.06a0,0,0,0,1,0,0v.13a0,0,0,0,1,0,0H19.28a0,0,0,0,1,0,0Zm7,.41v.3H19.4v-.3h6.82ZM19.27,21h7.08v.14a0,0,0,0,1,0,0H19.28a0,0,0,0,1,0,0Zm1.24,4.1H19.26v-.14h1.25Zm-1.11-.41V23.05s0,0,0,0h1s0,0,0,0v1.59h-1Zm1.11-1.85H19.26v-.14h1.25Zm2.92,2.26H22.18v-.14h1.25Zm-1.13-.41V23.05a0,0,0,0,1,0,0h1s0,0,0,0v1.59h-1Zm1.13-1.85H22.18v-.14h1.25Zm.85-1.22a.94.94,0,0,0-.69.26,1,1,0,0,0-.3.62h-1a1,1,0,0,0-.3-.62,1.07,1.07,0,0,0-1.41,0,.89.89,0,0,0-.22.61h-1V21.35s0,0,0,0h6.82a0,0,0,0,1,0,0v1.09h-1a.84.84,0,0,0-.22-.61A.92.92,0,0,0,24.28,21.57Zm2.07,3.48H25.11v-.14h1.24Zm-1.12-.41V23.05a0,0,0,0,1,0,0h1a0,0,0,0,1,0,0v1.59h-1Zm1.12-1.85H25.11v-.14h1.24Z" transform="translate(-0.72 -1.56)"/></svg>